<svg width="600" height="400" viewBox="0 0 600 400" xmlns="http://www.w3.org/2000/svg">
<rect x="0" y="0" width="600" height="400" opacity="1" fill="#FFFFFF" stroke="none"/>
<line opacity="0.1" stroke="#000000" stroke-width="1" x1="50" y1="349" x2="589" y2="349"/>
<line opacity="0.1" stroke="#000000" stroke-width="1" x1="50" y1="338" x2="589" y2="338"/>
<line opacity="0.1" stroke="#000000" stroke-width="1" x1="50" y1="326" x2="589" y2="326"/>
<line opacity="0.1" stroke="#000000" stroke-width="1" x1="50" y1="314" x2="589" y2="314"/>
<line opacity="0.1" stroke="#000000" stroke-width="1" x1="50" y1="302" x2="589" y2="302"/>
<line opacity="0.1" stroke="#000000" stroke-width="1" x1="50" y1="291" x2="589" y2="291"/>
<line opacity="0.1" stroke="#000000" stroke-width="1" x1="50" y1="279" x2="589" y2="279"/>
<line opacity="0.1" stroke="#000000" stroke-width="1" x1="50" y1="267" x2="589" y2="267"/>
<line opacity="0.1" stroke="#000000" stroke-width="1" x1="50" y1="255" x2="589" y2="255"/>
<line opacity="0.1" stroke="#000000" stroke-width="1" x1="50" y1="243" x2="589" y2="243"/>
<line opacity="0.1" stroke="#000000" stroke-width="1" x1="50" y1="232" x2="589" y2="232"/>
<line opacity="0.1" stroke="#000000" stroke-width="1" x1="50" y1="220" x2="589" y2="220"/>
<line opacity="0.1" stroke="#000000" stroke-width="1" x1="50" y1="208" x2="589" y2="208"/>
<line opacity="0.1" stroke="#000000" stroke-width="1" x1="50" y1="196" x2="589" y2="196"/>
<line opacity="0.1" stroke="#000000" stroke-width="1" x1="50" y1="184" x2="589" y2="184"/>
<line opacity="0.1" stroke="#000000" stroke-width="1" x1="50" y1="173" x2="589" y2="173"/>
<line opacity="0.1" stroke="#000000" stroke-width="1" x1="50" y1="161" x2="589" y2="161"/>
<line opacity="0.1" stroke="#000000" stroke-width="1" x1="50" y1="149" x2="589" y2="149"/>
<line opacity="0.1" stroke="#000000" stroke-width="1" x1="50" y1="137" x2="589" y2="137"/>
<line opacity="0.1" stroke="#000000" stroke-width="1" x1="50" y1="126" x2="589" y2="126"/>
<line opacity="0.1" stroke="#000000" stroke-width="1" x1="50" y1="114" x2="589" y2="114"/>
<line opacity="0.1" stroke="#000000" stroke-width="1" x1="50" y1="102" x2="589" y2="102"/>
<line opacity="0.1" stroke="#000000" stroke-width="1" x1="50" y1="90" x2="589" y2="90"/>
<line opacity="0.1" stroke="#000000" stroke-width="1" x1="50" y1="78" x2="589" y2="78"/>
<line opacity="0.1" stroke="#000000" stroke-width="1" x1="50" y1="67" x2="589" y2="67"/>
<line opacity="0.1" stroke="#000000" stroke-width="1" x1="50" y1="55" x2="589" y2="55"/>
<line opacity="0.1" stroke="#000000" stroke-width="1" x1="50" y1="43" x2="589" y2="43"/>
<line opacity="0.2" stroke="#000000" stroke-width="1" x1="50" y1="349" x2="589" y2="349"/>
<line opacity="0.2" stroke="#000000" stroke-width="1" x1="50" y1="291" x2="589" y2="291"/>
<line opacity="0.2" stroke="#000000" stroke-width="1" x1="50" y1="232" x2="589" y2="232"/>
<line opacity="0.2" stroke="#000000" stroke-width="1" x1="50" y1="173" x2="589" y2="173"/>
<line opacity="0.2" stroke="#000000" stroke-width="1" x1="50" y1="114" x2="589" y2="114"/>
<line opacity="0.2" stroke="#000000" stroke-width="1" x1="50" y1="55" x2="589" y2="55"/>
<polyline fill="none" opacity="1" stroke="#000000" stroke-width="1" points="49,40 49,349 "/>
<text x="40" y="349" dy="0.5ex" text-anchor="end" font-family="sans-serif" font-size="16.129032258064516" opacity="1" fill="#000000">
0
</text>
<polyline fill="none" opacity="1" stroke="#000000" stroke-width="1" points="44,349 49,349 "/>
<text x="40" y="291" dy="0.5ex" text-anchor="end" font-family="sans-serif" font-size="16.129032258064516" opacity="1" fill="#000000">
5
</text>
<polyline fill="none" opacity="1" stroke="#000000" stroke-width="1" points="44,291 49,291 "/>
<text x="40" y="232" dy="0.5ex" text-anchor="end" font-family="sans-serif" font-size="16.129032258064516" opacity="1" fill="#000000">
10
</text>
<polyline fill="none" opacity="1" stroke="#000000" stroke-width="1" points="44,232 49,232 "/>
<text x="40" y="173" dy="0.5ex" text-anchor="end" font-family="sans-serif" font-size="16.129032258064516" opacity="1" fill="#000000">
15
</text>
<polyline fill="none" opacity="1" stroke="#000000" stroke-width="1" points="44,173 49,173 "/>
<text x="40" y="114" dy="0.5ex" text-anchor="end" font-family="sans-serif" font-size="16.129032258064516" opacity="1" fill="#000000">
20
</text>
<polyline fill="none" opacity="1" stroke="#000000" stroke-width="1" points="44,114 49,114 "/>
<text x="40" y="55" dy="0.5ex" text-anchor="end" font-family="sans-serif" font-size="16.129032258064516" opacity="1" fill="#000000">
25
</text>
<polyline fill="none" opacity="1" stroke="#000000" stroke-width="1" points="44,55 49,55 "/>
<text x="3" y="280" dy="0.76em" text-anchor="start" font-family="sans-serif" font-size="16.129032258064516" opacity="1" fill="#000000" transform="rotate(270, 3, 280)">
Start-Up Latency [s]
</text>
<rect x="52" y="349" width="65" height="1" opacity="1" fill="#6666FF" stroke="none"/>
<rect x="186" y="349" width="66" height="1" opacity="1" fill="#6666FF" stroke="none"/>
<rect x="321" y="349" width="65" height="1" opacity="1" fill="#6666FF" stroke="none"/>
<rect x="456" y="349" width="65" height="0" opacity="1" fill="#6666FF" stroke="none"/>
<rect x="52" y="350" width="65" height="0" opacity="1" fill="#66FFB2" stroke="none"/>
<rect x="186" y="349" width="66" height="1" opacity="1" fill="#66FFB2" stroke="none"/>
<rect x="321" y="350" width="65" height="0" opacity="1" fill="#66FFB2" stroke="none"/>
<rect x="456" y="349" width="65" height="0" opacity="1" fill="#66FFB2" stroke="none"/>
<rect x="52" y="334" width="65" height="16" opacity="1" fill="#F5A142" stroke="none"/>
<rect x="186" y="332" width="66" height="17" opacity="1" fill="#F5A142" stroke="none"/>
<rect x="321" y="315" width="65" height="35" opacity="1" fill="#F5A142" stroke="none"/>
<rect x="456" y="349" width="65" height="0" opacity="1" fill="#F5A142" stroke="none"/>
<rect x="52" y="334" width="65" height="0" opacity="1" fill="#FF66B2" stroke="none"/>
<rect x="186" y="332" width="66" height="0" opacity="1" fill="#FF66B2" stroke="none"/>
<rect x="321" y="158" width="65" height="157" opacity="1" fill="#FF66B2" stroke="none"/>
<rect x="456" y="349" width="65" height="0" opacity="1" fill="#FF66B2" stroke="none"/>
<rect x="52" y="334" width="65" height="0" opacity="1" fill="#FF66B2" stroke="none"/>
<rect x="186" y="332" width="66" height="0" opacity="1" fill="#FF66B2" stroke="none"/>
<rect x="321" y="155" width="65" height="3" opacity="1" fill="#FF66B2" stroke="none"/>
<rect x="456" y="349" width="65" height="0" opacity="1" fill="#FF66B2" stroke="none"/>
<rect x="52" y="123" width="65" height="211" opacity="1" fill="#FFFF66" stroke="none"/>
<rect x="186" y="329" width="66" height="3" opacity="1" fill="#FFFF66" stroke="none"/>
<rect x="321" y="152" width="65" height="3" opacity="1" fill="#FFFF66" stroke="none"/>
<rect x="456" y="349" width="65" height="0" opacity="1" fill="#FFFF66" stroke="none"/>
<rect x="52" y="108" width="65" height="15" opacity="1" fill="#FFFF66" stroke="none"/>
<rect x="186" y="308" width="66" height="21" opacity="1" fill="#FFFF66" stroke="none"/>
<rect x="321" y="150" width="65" height="2" opacity="1" fill="#FFFF66" stroke="none"/>
<rect x="456" y="349" width="65" height="0" opacity="1" fill="#FFFF66" stroke="none"/>
<rect x="52" y="40" width="65" height="68" opacity="1" fill="#32328E" stroke="none"/>
<rect x="186" y="176" width="66" height="132" opacity="1" fill="#32328E" stroke="none"/>
<rect x="321" y="61" width="65" height="89" opacity="1" fill="#32328E" stroke="none"/>
<rect x="456" y="349" width="65" height="0" opacity="1" fill="#32328E" stroke="none"/>
<polyline fill="none" opacity="1" stroke="#000000" stroke-width="1" points="52,40 117,40 117,349 52,349 52,40 "/>
<polyline fill="none" opacity="1" stroke="#000000" stroke-width="1" points="187,176 252,176 252,349 187,349 187,176 "/>
<polyline fill="none" opacity="1" stroke="#000000" stroke-width="1" points="322,61 386,61 386,349 322,349 322,61 "/>
<polyline fill="none" opacity="1" stroke="#000000" stroke-width="1" points="456,349 521,349 521,349 456,349 456,349 "/>
<rect x="117" y="345" width="65" height="4" opacity="0.6" fill="#6666FF" stroke="none"/>
<rect x="252" y="345" width="65" height="4" opacity="0.6" fill="#6666FF" stroke="none"/>
<rect x="386" y="345" width="66" height="4" opacity="0.6" fill="#6666FF" stroke="none"/>
<rect x="521" y="349" width="66" height="0" opacity="0.6" fill="#6666FF" stroke="none"/>
<rect x="117" y="342" width="65" height="3" opacity="0.6" fill="#66FFB2" stroke="none"/>
<rect x="252" y="342" width="65" height="3" opacity="0.6" fill="#66FFB2" stroke="none"/>
<rect x="386" y="338" width="66" height="7" opacity="0.6" fill="#66FFB2" stroke="none"/>
<rect x="521" y="349" width="66" height="0" opacity="0.6" fill="#66FFB2" stroke="none"/>
<rect x="117" y="342" width="65" height="0" opacity="0.6" fill="#F5A142" stroke="none"/>
<rect x="252" y="342" width="65" height="0" opacity="0.6" fill="#F5A142" stroke="none"/>
<rect x="386" y="338" width="66" height="0" opacity="0.6" fill="#F5A142" stroke="none"/>
<rect x="521" y="349" width="66" height="0" opacity="0.6" fill="#F5A142" stroke="none"/>
<rect x="117" y="342" width="65" height="0" opacity="0.6" fill="#FF66B2" stroke="none"/>
<rect x="252" y="342" width="65" height="0" opacity="0.6" fill="#FF66B2" stroke="none"/>
<rect x="386" y="338" width="66" height="0" opacity="0.6" fill="#FF66B2" stroke="none"/>
<rect x="521" y="349" width="66" height="0" opacity="0.6" fill="#FF66B2" stroke="none"/>
<rect x="117" y="341" width="65" height="1" opacity="0.6" fill="#FF66B2" stroke="none"/>
<rect x="252" y="342" width="65" height="0" opacity="0.6" fill="#FF66B2" stroke="none"/>
<rect x="386" y="338" width="66" height="0" opacity="0.6" fill="#FF66B2" stroke="none"/>
<rect x="521" y="349" width="66" height="0" opacity="0.6" fill="#FF66B2" stroke="none"/>
<rect x="117" y="131" width="65" height="210" opacity="0.6" fill="#FFFF66" stroke="none"/>
<rect x="252" y="339" width="65" height="3" opacity="0.6" fill="#FFFF66" stroke="none"/>
<rect x="386" y="335" width="66" height="3" opacity="0.6" fill="#FFFF66" stroke="none"/>
<rect x="521" y="349" width="66" height="0" opacity="0.6" fill="#FFFF66" stroke="none"/>
<rect x="117" y="114" width="65" height="17" opacity="0.6" fill="#FFFF66" stroke="none"/>
<rect x="252" y="318" width="65" height="21" opacity="0.6" fill="#FFFF66" stroke="none"/>
<rect x="386" y="333" width="66" height="2" opacity="0.6" fill="#FFFF66" stroke="none"/>
<rect x="521" y="349" width="66" height="0" opacity="0.6" fill="#FFFF66" stroke="none"/>
<rect x="117" y="44" width="65" height="70" opacity="0.6" fill="#32328E" stroke="none"/>
<rect x="252" y="198" width="65" height="120" opacity="0.6" fill="#32328E" stroke="none"/>
<rect x="386" y="243" width="66" height="90" opacity="0.6" fill="#32328E" stroke="none"/>
<rect x="521" y="349" width="66" height="0" opacity="0.6" fill="#32328E" stroke="none"/>
<polyline fill="none" opacity="1" stroke="#000000" stroke-width="1" points="117,44 182,44 182,349 117,349 117,44 "/>
<polyline fill="none" opacity="1" stroke="#000000" stroke-width="1" points="252,198 316,198 316,349 252,349 252,198 "/>
<polyline fill="none" opacity="1" stroke="#000000" stroke-width="1" points="386,243 451,243 451,349 386,349 386,243 "/>
<polyline fill="none" opacity="1" stroke="#000000" stroke-width="1" points="521,349 586,349 586,349 521,349 521,349 "/>
<polyline fill="none" opacity="1" stroke="#000000" stroke-width="1" points="50,40 589,40 "/>
<polyline fill="none" opacity="1" stroke="#000000" stroke-width="1" points="589,349 589,40 "/>
<polyline fill="none" opacity="1" stroke="#000000" stroke-width="1" points="50,349 589,349 "/>
<text x="80" y="360" dy="0.76em" text-anchor="start" font-family="sans-serif" font-size="16.129032258064516" opacity="1" fill="#000000">
guest-pull
</text>
<text x="200" y="360" dy="0.76em" text-anchor="start" font-family="sans-serif" font-size="16.129032258064516" opacity="1" fill="#000000">
guest-lazy
</text>
<text x="360" y="360" dy="0.76em" text-anchor="start" font-family="sans-serif" font-size="16.129032258064516" opacity="1" fill="#000000">
host-mount
</text>
<text x="510" y="360" dy="0.76em" text-anchor="start" font-family="sans-serif" font-size="16.129032258064516" opacity="1" fill="#000000">
sc2
</text>
<rect x="70" y="6" width="20" height="20" opacity="1" fill="#F5A142" stroke="none"/>
<text x="100" y="11" dy="0.76em" text-anchor="start" font-family="sans-serif" font-size="16.129032258064516" opacity="1" fill="#000000">
pull-image-host
</text>
<rect x="230" y="6" width="20" height="20" opacity="1" fill="#FFFF66" stroke="none"/>
<text x="260" y="11" dy="0.76em" text-anchor="start" font-family="sans-serif" font-size="16.129032258064516" opacity="1" fill="#000000">
pull-image-guest
</text>
<rect x="405" y="6" width="20" height="20" opacity="1" fill="#32328E" stroke="none"/>
<text x="435" y="11" dy="0.76em" text-anchor="start" font-family="sans-serif" font-size="16.129032258064516" opacity="1" fill="#000000">
func-runtime
</text>
<text x="75" y="90" dy="0.76em" text-anchor="start" font-family="sans-serif" font-size="11.290322580645162" opacity="1" fill="#000000">
warm
</text>
<text x="130" y="90" dy="0.76em" text-anchor="start" font-family="sans-serif" font-size="11.290322580645162" opacity="1" fill="#000000">
warm
</text>
</svg>
