<svg width="600" height="400" viewBox="0 0 600 400" xmlns="http://www.w3.org/2000/svg">
<rect x="0" y="0" width="600" height="400" opacity="1" fill="#FFFFFF" stroke="none"/>
<line opacity="0.1" stroke="#000000" stroke-width="1" x1="50" y1="349" x2="589" y2="349"/>
<line opacity="0.1" stroke="#000000" stroke-width="1" x1="50" y1="334" x2="589" y2="334"/>
<line opacity="0.1" stroke="#000000" stroke-width="1" x1="50" y1="319" x2="589" y2="319"/>
<line opacity="0.1" stroke="#000000" stroke-width="1" x1="50" y1="303" x2="589" y2="303"/>
<line opacity="0.1" stroke="#000000" stroke-width="1" x1="50" y1="288" x2="589" y2="288"/>
<line opacity="0.1" stroke="#000000" stroke-width="1" x1="50" y1="272" x2="589" y2="272"/>
<line opacity="0.1" stroke="#000000" stroke-width="1" x1="50" y1="257" x2="589" y2="257"/>
<line opacity="0.1" stroke="#000000" stroke-width="1" x1="50" y1="241" x2="589" y2="241"/>
<line opacity="0.1" stroke="#000000" stroke-width="1" x1="50" y1="226" x2="589" y2="226"/>
<line opacity="0.1" stroke="#000000" stroke-width="1" x1="50" y1="210" x2="589" y2="210"/>
<line opacity="0.1" stroke="#000000" stroke-width="1" x1="50" y1="195" x2="589" y2="195"/>
<line opacity="0.1" stroke="#000000" stroke-width="1" x1="50" y1="180" x2="589" y2="180"/>
<line opacity="0.1" stroke="#000000" stroke-width="1" x1="50" y1="164" x2="589" y2="164"/>
<line opacity="0.1" stroke="#000000" stroke-width="1" x1="50" y1="149" x2="589" y2="149"/>
<line opacity="0.1" stroke="#000000" stroke-width="1" x1="50" y1="133" x2="589" y2="133"/>
<line opacity="0.1" stroke="#000000" stroke-width="1" x1="50" y1="118" x2="589" y2="118"/>
<line opacity="0.1" stroke="#000000" stroke-width="1" x1="50" y1="102" x2="589" y2="102"/>
<line opacity="0.1" stroke="#000000" stroke-width="1" x1="50" y1="87" x2="589" y2="87"/>
<line opacity="0.1" stroke="#000000" stroke-width="1" x1="50" y1="71" x2="589" y2="71"/>
<line opacity="0.1" stroke="#000000" stroke-width="1" x1="50" y1="56" x2="589" y2="56"/>
<line opacity="0.1" stroke="#000000" stroke-width="1" x1="50" y1="40" x2="589" y2="40"/>
<line opacity="0.2" stroke="#000000" stroke-width="1" x1="50" y1="349" x2="589" y2="349"/>
<line opacity="0.2" stroke="#000000" stroke-width="1" x1="50" y1="288" x2="589" y2="288"/>
<line opacity="0.2" stroke="#000000" stroke-width="1" x1="50" y1="226" x2="589" y2="226"/>
<line opacity="0.2" stroke="#000000" stroke-width="1" x1="50" y1="164" x2="589" y2="164"/>
<line opacity="0.2" stroke="#000000" stroke-width="1" x1="50" y1="102" x2="589" y2="102"/>
<line opacity="0.2" stroke="#000000" stroke-width="1" x1="50" y1="40" x2="589" y2="40"/>
<polyline fill="none" opacity="1" stroke="#000000" stroke-width="1" points="49,40 49,349 "/>
<text x="40" y="349" dy="0.5ex" text-anchor="end" font-family="sans-serif" font-size="16.129032258064516" opacity="1" fill="#000000">
0
</text>
<polyline fill="none" opacity="1" stroke="#000000" stroke-width="1" points="44,349 49,349 "/>
<text x="40" y="288" dy="0.5ex" text-anchor="end" font-family="sans-serif" font-size="16.129032258064516" opacity="1" fill="#000000">
2
</text>
<polyline fill="none" opacity="1" stroke="#000000" stroke-width="1" points="44,288 49,288 "/>
<text x="40" y="226" dy="0.5ex" text-anchor="end" font-family="sans-serif" font-size="16.129032258064516" opacity="1" fill="#000000">
4
</text>
<polyline fill="none" opacity="1" stroke="#000000" stroke-width="1" points="44,226 49,226 "/>
<text x="40" y="164" dy="0.5ex" text-anchor="end" font-family="sans-serif" font-size="16.129032258064516" opacity="1" fill="#000000">
6
</text>
<polyline fill="none" opacity="1" stroke="#000000" stroke-width="1" points="44,164 49,164 "/>
<text x="40" y="102" dy="0.5ex" text-anchor="end" font-family="sans-serif" font-size="16.129032258064516" opacity="1" fill="#000000">
8
</text>
<polyline fill="none" opacity="1" stroke="#000000" stroke-width="1" points="44,102 49,102 "/>
<text x="40" y="40" dy="0.5ex" text-anchor="end" font-family="sans-serif" font-size="16.129032258064516" opacity="1" fill="#000000">
10
</text>
<polyline fill="none" opacity="1" stroke="#000000" stroke-width="1" points="44,40 49,40 "/>
<text x="3" y="280" dy="0.76em" text-anchor="start" font-family="sans-serif" font-size="16.129032258064516" opacity="1" fill="#000000" transform="rotate(270, 3, 280)">
Start-Up Latency [s]
</text>
<rect x="52" y="339" width="65" height="10" opacity="1" fill="#6666FF" stroke="none"/>
<rect x="186" y="338" width="66" height="11" opacity="1" fill="#6666FF" stroke="none"/>
<rect x="321" y="349" width="65" height="0" opacity="1" fill="#6666FF" stroke="none"/>
<rect x="456" y="349" width="65" height="0" opacity="1" fill="#6666FF" stroke="none"/>
<rect x="52" y="331" width="65" height="8" opacity="1" fill="#66FFB2" stroke="none"/>
<rect x="186" y="330" width="66" height="8" opacity="1" fill="#66FFB2" stroke="none"/>
<rect x="321" y="306" width="65" height="43" opacity="1" fill="#66FFB2" stroke="none"/>
<rect x="456" y="349" width="65" height="0" opacity="1" fill="#66FFB2" stroke="none"/>
<rect x="52" y="328" width="65" height="3" opacity="1" fill="#F5A142" stroke="none"/>
<rect x="186" y="327" width="66" height="3" opacity="1" fill="#F5A142" stroke="none"/>
<rect x="321" y="181" width="65" height="125" opacity="1" fill="#F5A142" stroke="none"/>
<rect x="456" y="349" width="65" height="0" opacity="1" fill="#F5A142" stroke="none"/>
<rect x="52" y="327" width="65" height="1" opacity="1" fill="#FF66B2" stroke="none"/>
<rect x="186" y="326" width="66" height="1" opacity="1" fill="#FF66B2" stroke="none"/>
<rect x="321" y="178" width="65" height="3" opacity="1" fill="#FF66B2" stroke="none"/>
<rect x="456" y="349" width="65" height="0" opacity="1" fill="#FF66B2" stroke="none"/>
<rect x="52" y="326" width="65" height="1" opacity="1" fill="#FF66B2" stroke="none"/>
<rect x="186" y="326" width="66" height="0" opacity="1" fill="#FF66B2" stroke="none"/>
<rect x="321" y="177" width="65" height="1" opacity="1" fill="#FF66B2" stroke="none"/>
<rect x="456" y="349" width="65" height="0" opacity="1" fill="#FF66B2" stroke="none"/>
<rect x="52" y="182" width="65" height="144" opacity="1" fill="#FFFF66" stroke="none"/>
<rect x="186" y="318" width="66" height="8" opacity="1" fill="#FFFF66" stroke="none"/>
<rect x="321" y="152" width="65" height="25" opacity="1" fill="#FFFF66" stroke="none"/>
<rect x="456" y="349" width="65" height="0" opacity="1" fill="#FFFF66" stroke="none"/>
<rect x="52" y="137" width="65" height="45" opacity="1" fill="#FFFF66" stroke="none"/>
<rect x="186" y="263" width="66" height="55" opacity="1" fill="#FFFF66" stroke="none"/>
<rect x="321" y="112" width="65" height="40" opacity="1" fill="#FFFF66" stroke="none"/>
<rect x="456" y="349" width="65" height="0" opacity="1" fill="#FFFF66" stroke="none"/>
<rect x="52" y="116" width="65" height="21" opacity="1" fill="#32328E" stroke="none"/>
<rect x="186" y="252" width="66" height="11" opacity="1" fill="#32328E" stroke="none"/>
<rect x="321" y="100" width="65" height="12" opacity="1" fill="#32328E" stroke="none"/>
<rect x="456" y="349" width="65" height="0" opacity="1" fill="#32328E" stroke="none"/>
<polyline fill="none" opacity="1" stroke="#000000" stroke-width="1" points="52,116 117,116 117,349 52,349 52,116 "/>
<polyline fill="none" opacity="1" stroke="#000000" stroke-width="1" points="187,252 252,252 252,349 187,349 187,252 "/>
<polyline fill="none" opacity="1" stroke="#000000" stroke-width="1" points="322,100 386,100 386,349 322,349 322,100 "/>
<polyline fill="none" opacity="1" stroke="#000000" stroke-width="1" points="456,349 521,349 521,349 456,349 456,349 "/>
<rect x="117" y="338" width="65" height="11" opacity="0.6" fill="#6666FF" stroke="none"/>
<rect x="252" y="338" width="65" height="11" opacity="0.6" fill="#6666FF" stroke="none"/>
<rect x="386" y="349" width="66" height="0" opacity="0.6" fill="#6666FF" stroke="none"/>
<rect x="521" y="349" width="66" height="0" opacity="0.6" fill="#6666FF" stroke="none"/>
<rect x="117" y="330" width="65" height="8" opacity="0.6" fill="#66FFB2" stroke="none"/>
<rect x="252" y="330" width="65" height="8" opacity="0.6" fill="#66FFB2" stroke="none"/>
<rect x="386" y="334" width="66" height="15" opacity="0.6" fill="#66FFB2" stroke="none"/>
<rect x="521" y="349" width="66" height="0" opacity="0.6" fill="#66FFB2" stroke="none"/>
<rect x="117" y="330" width="65" height="0" opacity="0.6" fill="#F5A142" stroke="none"/>
<rect x="252" y="330" width="65" height="0" opacity="0.6" fill="#F5A142" stroke="none"/>
<rect x="386" y="334" width="66" height="0" opacity="0.6" fill="#F5A142" stroke="none"/>
<rect x="521" y="349" width="66" height="0" opacity="0.6" fill="#F5A142" stroke="none"/>
<rect x="117" y="329" width="65" height="1" opacity="0.6" fill="#FF66B2" stroke="none"/>
<rect x="252" y="329" width="65" height="1" opacity="0.6" fill="#FF66B2" stroke="none"/>
<rect x="386" y="333" width="66" height="1" opacity="0.6" fill="#FF66B2" stroke="none"/>
<rect x="521" y="349" width="66" height="0" opacity="0.6" fill="#FF66B2" stroke="none"/>
<rect x="117" y="328" width="65" height="1" opacity="0.6" fill="#FF66B2" stroke="none"/>
<rect x="252" y="328" width="65" height="1" opacity="0.6" fill="#FF66B2" stroke="none"/>
<rect x="386" y="331" width="66" height="2" opacity="0.6" fill="#FF66B2" stroke="none"/>
<rect x="521" y="349" width="66" height="0" opacity="0.6" fill="#FF66B2" stroke="none"/>
<rect x="117" y="184" width="65" height="144" opacity="0.6" fill="#FFFF66" stroke="none"/>
<rect x="252" y="321" width="65" height="7" opacity="0.6" fill="#FFFF66" stroke="none"/>
<rect x="386" y="303" width="66" height="28" opacity="0.6" fill="#FFFF66" stroke="none"/>
<rect x="521" y="349" width="66" height="0" opacity="0.6" fill="#FFFF66" stroke="none"/>
<rect x="117" y="140" width="65" height="44" opacity="0.6" fill="#FFFF66" stroke="none"/>
<rect x="252" y="266" width="65" height="55" opacity="0.6" fill="#FFFF66" stroke="none"/>
<rect x="386" y="264" width="66" height="39" opacity="0.6" fill="#FFFF66" stroke="none"/>
<rect x="521" y="349" width="66" height="0" opacity="0.6" fill="#FFFF66" stroke="none"/>
<rect x="117" y="129" width="65" height="11" opacity="0.6" fill="#32328E" stroke="none"/>
<rect x="252" y="261" width="65" height="5" opacity="0.6" fill="#32328E" stroke="none"/>
<rect x="386" y="247" width="66" height="17" opacity="0.6" fill="#32328E" stroke="none"/>
<rect x="521" y="349" width="66" height="0" opacity="0.6" fill="#32328E" stroke="none"/>
<polyline fill="none" opacity="1" stroke="#000000" stroke-width="1" points="117,129 182,129 182,349 117,349 117,129 "/>
<polyline fill="none" opacity="1" stroke="#000000" stroke-width="1" points="252,261 316,261 316,349 252,349 252,261 "/>
<polyline fill="none" opacity="1" stroke="#000000" stroke-width="1" points="386,247 451,247 451,349 386,349 386,247 "/>
<polyline fill="none" opacity="1" stroke="#000000" stroke-width="1" points="521,349 586,349 586,349 521,349 521,349 "/>
<polyline fill="none" opacity="1" stroke="#000000" stroke-width="1" points="50,40 589,40 "/>
<polyline fill="none" opacity="1" stroke="#000000" stroke-width="1" points="589,349 589,40 "/>
<polyline fill="none" opacity="1" stroke="#000000" stroke-width="1" points="50,349 589,349 "/>
<text x="80" y="360" dy="0.76em" text-anchor="start" font-family="sans-serif" font-size="16.129032258064516" opacity="1" fill="#000000">
guest-pull
</text>
<text x="200" y="360" dy="0.76em" text-anchor="start" font-family="sans-serif" font-size="16.129032258064516" opacity="1" fill="#000000">
guest-lazy
</text>
<text x="360" y="360" dy="0.76em" text-anchor="start" font-family="sans-serif" font-size="16.129032258064516" opacity="1" fill="#000000">
host-mount
</text>
<text x="510" y="360" dy="0.76em" text-anchor="start" font-family="sans-serif" font-size="16.129032258064516" opacity="1" fill="#000000">
sc2
</text>
<rect x="70" y="6" width="20" height="20" opacity="1" fill="#F5A142" stroke="none"/>
<text x="100" y="11" dy="0.76em" text-anchor="start" font-family="sans-serif" font-size="16.129032258064516" opacity="1" fill="#000000">
pull-image-host
</text>
<rect x="230" y="6" width="20" height="20" opacity="1" fill="#FFFF66" stroke="none"/>
<text x="260" y="11" dy="0.76em" text-anchor="start" font-family="sans-serif" font-size="16.129032258064516" opacity="1" fill="#000000">
pull-image-guest
</text>
<rect x="405" y="6" width="20" height="20" opacity="1" fill="#32328E" stroke="none"/>
<text x="435" y="11" dy="0.76em" text-anchor="start" font-family="sans-serif" font-size="16.129032258064516" opacity="1" fill="#000000">
func-runtime
</text>
<text x="75" y="90" dy="0.76em" text-anchor="start" font-family="sans-serif" font-size="11.290322580645162" opacity="1" fill="#000000">
cold
</text>
<text x="130" y="90" dy="0.76em" text-anchor="start" font-family="sans-serif" font-size="11.290322580645162" opacity="1" fill="#000000">
warm
</text>
</svg>
