<svg width="600" height="400" viewBox="0 0 600 400" xmlns="http://www.w3.org/2000/svg">
<rect x="0" y="0" width="600" height="400" opacity="1" fill="#FFFFFF" stroke="none"/>
<line opacity="0.1" stroke="#000000" stroke-width="1" x1="50" y1="349" x2="589" y2="349"/>
<line opacity="0.1" stroke="#000000" stroke-width="1" x1="50" y1="338" x2="589" y2="338"/>
<line opacity="0.1" stroke="#000000" stroke-width="1" x1="50" y1="326" x2="589" y2="326"/>
<line opacity="0.1" stroke="#000000" stroke-width="1" x1="50" y1="314" x2="589" y2="314"/>
<line opacity="0.1" stroke="#000000" stroke-width="1" x1="50" y1="302" x2="589" y2="302"/>
<line opacity="0.1" stroke="#000000" stroke-width="1" x1="50" y1="290" x2="589" y2="290"/>
<line opacity="0.1" stroke="#000000" stroke-width="1" x1="50" y1="278" x2="589" y2="278"/>
<line opacity="0.1" stroke="#000000" stroke-width="1" x1="50" y1="266" x2="589" y2="266"/>
<line opacity="0.1" stroke="#000000" stroke-width="1" x1="50" y1="254" x2="589" y2="254"/>
<line opacity="0.1" stroke="#000000" stroke-width="1" x1="50" y1="242" x2="589" y2="242"/>
<line opacity="0.1" stroke="#000000" stroke-width="1" x1="50" y1="230" x2="589" y2="230"/>
<line opacity="0.1" stroke="#000000" stroke-width="1" x1="50" y1="219" x2="589" y2="219"/>
<line opacity="0.1" stroke="#000000" stroke-width="1" x1="50" y1="207" x2="589" y2="207"/>
<line opacity="0.1" stroke="#000000" stroke-width="1" x1="50" y1="195" x2="589" y2="195"/>
<line opacity="0.1" stroke="#000000" stroke-width="1" x1="50" y1="183" x2="589" y2="183"/>
<line opacity="0.1" stroke="#000000" stroke-width="1" x1="50" y1="171" x2="589" y2="171"/>
<line opacity="0.1" stroke="#000000" stroke-width="1" x1="50" y1="159" x2="589" y2="159"/>
<line opacity="0.1" stroke="#000000" stroke-width="1" x1="50" y1="147" x2="589" y2="147"/>
<line opacity="0.1" stroke="#000000" stroke-width="1" x1="50" y1="135" x2="589" y2="135"/>
<line opacity="0.1" stroke="#000000" stroke-width="1" x1="50" y1="123" x2="589" y2="123"/>
<line opacity="0.1" stroke="#000000" stroke-width="1" x1="50" y1="111" x2="589" y2="111"/>
<line opacity="0.1" stroke="#000000" stroke-width="1" x1="50" y1="100" x2="589" y2="100"/>
<line opacity="0.1" stroke="#000000" stroke-width="1" x1="50" y1="88" x2="589" y2="88"/>
<line opacity="0.1" stroke="#000000" stroke-width="1" x1="50" y1="76" x2="589" y2="76"/>
<line opacity="0.1" stroke="#000000" stroke-width="1" x1="50" y1="64" x2="589" y2="64"/>
<line opacity="0.1" stroke="#000000" stroke-width="1" x1="50" y1="52" x2="589" y2="52"/>
<line opacity="0.2" stroke="#000000" stroke-width="1" x1="50" y1="349" x2="589" y2="349"/>
<line opacity="0.2" stroke="#000000" stroke-width="1" x1="50" y1="290" x2="589" y2="290"/>
<line opacity="0.2" stroke="#000000" stroke-width="1" x1="50" y1="230" x2="589" y2="230"/>
<line opacity="0.2" stroke="#000000" stroke-width="1" x1="50" y1="171" x2="589" y2="171"/>
<line opacity="0.2" stroke="#000000" stroke-width="1" x1="50" y1="111" x2="589" y2="111"/>
<line opacity="0.2" stroke="#000000" stroke-width="1" x1="50" y1="52" x2="589" y2="52"/>
<polyline fill="none" opacity="1" stroke="#000000" stroke-width="1" points="49,40 49,349 "/>
<text x="40" y="349" dy="0.5ex" text-anchor="end" font-family="sans-serif" font-size="16.129032258064516" opacity="1" fill="#000000">
0
</text>
<polyline fill="none" opacity="1" stroke="#000000" stroke-width="1" points="44,349 49,349 "/>
<text x="40" y="290" dy="0.5ex" text-anchor="end" font-family="sans-serif" font-size="16.129032258064516" opacity="1" fill="#000000">
5
</text>
<polyline fill="none" opacity="1" stroke="#000000" stroke-width="1" points="44,290 49,290 "/>
<text x="40" y="230" dy="0.5ex" text-anchor="end" font-family="sans-serif" font-size="16.129032258064516" opacity="1" fill="#000000">
10
</text>
<polyline fill="none" opacity="1" stroke="#000000" stroke-width="1" points="44,230 49,230 "/>
<text x="40" y="171" dy="0.5ex" text-anchor="end" font-family="sans-serif" font-size="16.129032258064516" opacity="1" fill="#000000">
15
</text>
<polyline fill="none" opacity="1" stroke="#000000" stroke-width="1" points="44,171 49,171 "/>
<text x="40" y="111" dy="0.5ex" text-anchor="end" font-family="sans-serif" font-size="16.129032258064516" opacity="1" fill="#000000">
20
</text>
<polyline fill="none" opacity="1" stroke="#000000" stroke-width="1" points="44,111 49,111 "/>
<text x="40" y="52" dy="0.5ex" text-anchor="end" font-family="sans-serif" font-size="16.129032258064516" opacity="1" fill="#000000">
25
</text>
<polyline fill="none" opacity="1" stroke="#000000" stroke-width="1" points="44,52 49,52 "/>
<text x="3" y="280" dy="0.76em" text-anchor="start" font-family="sans-serif" font-size="16.129032258064516" opacity="1" fill="#000000" transform="rotate(270, 3, 280)">
Start-Up Latency [s]
</text>
<rect x="52" y="345" width="65" height="4" opacity="1" fill="#6666FF" stroke="none"/>
<rect x="186" y="344" width="66" height="5" opacity="1" fill="#6666FF" stroke="none"/>
<rect x="321" y="349" width="65" height="0" opacity="1" fill="#6666FF" stroke="none"/>
<rect x="456" y="349" width="65" height="0" opacity="1" fill="#6666FF" stroke="none"/>
<rect x="52" y="342" width="65" height="3" opacity="1" fill="#66FFB2" stroke="none"/>
<rect x="186" y="341" width="66" height="3" opacity="1" fill="#66FFB2" stroke="none"/>
<rect x="321" y="349" width="65" height="0" opacity="1" fill="#66FFB2" stroke="none"/>
<rect x="456" y="349" width="65" height="0" opacity="1" fill="#66FFB2" stroke="none"/>
<rect x="52" y="341" width="65" height="1" opacity="1" fill="#F5A142" stroke="none"/>
<rect x="186" y="340" width="66" height="1" opacity="1" fill="#F5A142" stroke="none"/>
<rect x="321" y="349" width="65" height="0" opacity="1" fill="#F5A142" stroke="none"/>
<rect x="456" y="349" width="65" height="0" opacity="1" fill="#F5A142" stroke="none"/>
<rect x="52" y="341" width="65" height="0" opacity="1" fill="#FF66B2" stroke="none"/>
<rect x="186" y="340" width="66" height="0" opacity="1" fill="#FF66B2" stroke="none"/>
<rect x="321" y="349" width="65" height="0" opacity="1" fill="#FF66B2" stroke="none"/>
<rect x="456" y="349" width="65" height="0" opacity="1" fill="#FF66B2" stroke="none"/>
<rect x="52" y="341" width="65" height="0" opacity="1" fill="#FF66B2" stroke="none"/>
<rect x="186" y="339" width="66" height="1" opacity="1" fill="#FF66B2" stroke="none"/>
<rect x="321" y="349" width="65" height="0" opacity="1" fill="#FF66B2" stroke="none"/>
<rect x="456" y="349" width="65" height="0" opacity="1" fill="#FF66B2" stroke="none"/>
<rect x="52" y="132" width="65" height="209" opacity="1" fill="#FFFF66" stroke="none"/>
<rect x="186" y="336" width="66" height="3" opacity="1" fill="#FFFF66" stroke="none"/>
<rect x="321" y="349" width="65" height="0" opacity="1" fill="#FFFF66" stroke="none"/>
<rect x="456" y="349" width="65" height="0" opacity="1" fill="#FFFF66" stroke="none"/>
<rect x="52" y="116" width="65" height="16" opacity="1" fill="#FFFF66" stroke="none"/>
<rect x="186" y="315" width="66" height="21" opacity="1" fill="#FFFF66" stroke="none"/>
<rect x="321" y="349" width="65" height="0" opacity="1" fill="#FFFF66" stroke="none"/>
<rect x="456" y="349" width="65" height="0" opacity="1" fill="#FFFF66" stroke="none"/>
<rect x="52" y="42" width="65" height="74" opacity="1" fill="#32328E" stroke="none"/>
<rect x="186" y="186" width="66" height="129" opacity="1" fill="#32328E" stroke="none"/>
<rect x="321" y="349" width="65" height="0" opacity="1" fill="#32328E" stroke="none"/>
<rect x="456" y="349" width="65" height="0" opacity="1" fill="#32328E" stroke="none"/>
<polyline fill="none" opacity="1" stroke="#000000" stroke-width="1" points="52,42 117,42 117,349 52,349 52,42 "/>
<polyline fill="none" opacity="1" stroke="#000000" stroke-width="1" points="187,186 252,186 252,349 187,349 187,186 "/>
<polyline fill="none" opacity="1" stroke="#000000" stroke-width="1" points="322,349 386,349 386,349 322,349 322,349 "/>
<polyline fill="none" opacity="1" stroke="#000000" stroke-width="1" points="456,349 521,349 521,349 456,349 456,349 "/>
<rect x="117" y="345" width="65" height="4" opacity="0.6" fill="#6666FF" stroke="none"/>
<rect x="252" y="345" width="65" height="4" opacity="0.6" fill="#6666FF" stroke="none"/>
<rect x="386" y="349" width="66" height="0" opacity="0.6" fill="#6666FF" stroke="none"/>
<rect x="521" y="349" width="66" height="0" opacity="0.6" fill="#6666FF" stroke="none"/>
<rect x="117" y="342" width="65" height="3" opacity="0.6" fill="#66FFB2" stroke="none"/>
<rect x="252" y="342" width="65" height="3" opacity="0.6" fill="#66FFB2" stroke="none"/>
<rect x="386" y="349" width="66" height="0" opacity="0.6" fill="#66FFB2" stroke="none"/>
<rect x="521" y="349" width="66" height="0" opacity="0.6" fill="#66FFB2" stroke="none"/>
<rect x="117" y="342" width="65" height="0" opacity="0.6" fill="#F5A142" stroke="none"/>
<rect x="252" y="342" width="65" height="0" opacity="0.6" fill="#F5A142" stroke="none"/>
<rect x="386" y="349" width="66" height="0" opacity="0.6" fill="#F5A142" stroke="none"/>
<rect x="521" y="349" width="66" height="0" opacity="0.6" fill="#F5A142" stroke="none"/>
<rect x="117" y="342" width="65" height="0" opacity="0.6" fill="#FF66B2" stroke="none"/>
<rect x="252" y="342" width="65" height="0" opacity="0.6" fill="#FF66B2" stroke="none"/>
<rect x="386" y="349" width="66" height="0" opacity="0.6" fill="#FF66B2" stroke="none"/>
<rect x="521" y="349" width="66" height="0" opacity="0.6" fill="#FF66B2" stroke="none"/>
<rect x="117" y="342" width="65" height="0" opacity="0.6" fill="#FF66B2" stroke="none"/>
<rect x="252" y="341" width="65" height="1" opacity="0.6" fill="#FF66B2" stroke="none"/>
<rect x="386" y="349" width="66" height="0" opacity="0.6" fill="#FF66B2" stroke="none"/>
<rect x="521" y="349" width="66" height="0" opacity="0.6" fill="#FF66B2" stroke="none"/>
<rect x="117" y="133" width="65" height="209" opacity="0.6" fill="#FFFF66" stroke="none"/>
<rect x="252" y="338" width="65" height="3" opacity="0.6" fill="#FFFF66" stroke="none"/>
<rect x="386" y="349" width="66" height="0" opacity="0.6" fill="#FFFF66" stroke="none"/>
<rect x="521" y="349" width="66" height="0" opacity="0.6" fill="#FFFF66" stroke="none"/>
<rect x="117" y="116" width="65" height="17" opacity="0.6" fill="#FFFF66" stroke="none"/>
<rect x="252" y="317" width="65" height="21" opacity="0.6" fill="#FFFF66" stroke="none"/>
<rect x="386" y="349" width="66" height="0" opacity="0.6" fill="#FFFF66" stroke="none"/>
<rect x="521" y="349" width="66" height="0" opacity="0.6" fill="#FFFF66" stroke="none"/>
<rect x="117" y="40" width="65" height="76" opacity="0.6" fill="#32328E" stroke="none"/>
<rect x="252" y="187" width="65" height="130" opacity="0.6" fill="#32328E" stroke="none"/>
<rect x="386" y="349" width="66" height="0" opacity="0.6" fill="#32328E" stroke="none"/>
<rect x="521" y="349" width="66" height="0" opacity="0.6" fill="#32328E" stroke="none"/>
<polyline fill="none" opacity="1" stroke="#000000" stroke-width="1" points="117,40 182,40 182,349 117,349 117,40 "/>
<polyline fill="none" opacity="1" stroke="#000000" stroke-width="1" points="252,187 316,187 316,349 252,349 252,187 "/>
<polyline fill="none" opacity="1" stroke="#000000" stroke-width="1" points="386,349 451,349 451,349 386,349 386,349 "/>
<polyline fill="none" opacity="1" stroke="#000000" stroke-width="1" points="521,349 586,349 586,349 521,349 521,349 "/>
<polyline fill="none" opacity="1" stroke="#000000" stroke-width="1" points="50,40 589,40 "/>
<polyline fill="none" opacity="1" stroke="#000000" stroke-width="1" points="589,349 589,40 "/>
<polyline fill="none" opacity="1" stroke="#000000" stroke-width="1" points="50,349 589,349 "/>
<text x="80" y="360" dy="0.76em" text-anchor="start" font-family="sans-serif" font-size="16.129032258064516" opacity="1" fill="#000000">
guest-pull
</text>
<text x="200" y="360" dy="0.76em" text-anchor="start" font-family="sans-serif" font-size="16.129032258064516" opacity="1" fill="#000000">
guest-lazy
</text>
<text x="360" y="360" dy="0.76em" text-anchor="start" font-family="sans-serif" font-size="16.129032258064516" opacity="1" fill="#000000">
host-mount
</text>
<text x="510" y="360" dy="0.76em" text-anchor="start" font-family="sans-serif" font-size="16.129032258064516" opacity="1" fill="#000000">
sc2
</text>
<rect x="70" y="6" width="20" height="20" opacity="1" fill="#F5A142" stroke="none"/>
<text x="100" y="11" dy="0.76em" text-anchor="start" font-family="sans-serif" font-size="16.129032258064516" opacity="1" fill="#000000">
pull-image-host
</text>
<rect x="230" y="6" width="20" height="20" opacity="1" fill="#FFFF66" stroke="none"/>
<text x="260" y="11" dy="0.76em" text-anchor="start" font-family="sans-serif" font-size="16.129032258064516" opacity="1" fill="#000000">
pull-image-guest
</text>
<rect x="405" y="6" width="20" height="20" opacity="1" fill="#32328E" stroke="none"/>
<text x="435" y="11" dy="0.76em" text-anchor="start" font-family="sans-serif" font-size="16.129032258064516" opacity="1" fill="#000000">
func-runtime
</text>
<text x="75" y="90" dy="0.76em" text-anchor="start" font-family="sans-serif" font-size="11.290322580645162" opacity="1" fill="#000000">
cold
</text>
<text x="130" y="90" dy="0.76em" text-anchor="start" font-family="sans-serif" font-size="11.290322580645162" opacity="1" fill="#000000">
warm
</text>
</svg>
