<svg width="600" height="400" viewBox="0 0 600 400" xmlns="http://www.w3.org/2000/svg">
<rect x="0" y="0" width="600" height="400" opacity="1" fill="#FFFFFF" stroke="none"/>
<line opacity="0.1" stroke="#000000" stroke-width="1" x1="50" y1="349" x2="589" y2="349"/>
<line opacity="0.1" stroke="#000000" stroke-width="1" x1="50" y1="339" x2="589" y2="339"/>
<line opacity="0.1" stroke="#000000" stroke-width="1" x1="50" y1="329" x2="589" y2="329"/>
<line opacity="0.1" stroke="#000000" stroke-width="1" x1="50" y1="318" x2="589" y2="318"/>
<line opacity="0.1" stroke="#000000" stroke-width="1" x1="50" y1="308" x2="589" y2="308"/>
<line opacity="0.1" stroke="#000000" stroke-width="1" x1="50" y1="297" x2="589" y2="297"/>
<line opacity="0.1" stroke="#000000" stroke-width="1" x1="50" y1="287" x2="589" y2="287"/>
<line opacity="0.1" stroke="#000000" stroke-width="1" x1="50" y1="277" x2="589" y2="277"/>
<line opacity="0.1" stroke="#000000" stroke-width="1" x1="50" y1="266" x2="589" y2="266"/>
<line opacity="0.1" stroke="#000000" stroke-width="1" x1="50" y1="256" x2="589" y2="256"/>
<line opacity="0.1" stroke="#000000" stroke-width="1" x1="50" y1="245" x2="589" y2="245"/>
<line opacity="0.1" stroke="#000000" stroke-width="1" x1="50" y1="235" x2="589" y2="235"/>
<line opacity="0.1" stroke="#000000" stroke-width="1" x1="50" y1="225" x2="589" y2="225"/>
<line opacity="0.1" stroke="#000000" stroke-width="1" x1="50" y1="214" x2="589" y2="214"/>
<line opacity="0.1" stroke="#000000" stroke-width="1" x1="50" y1="204" x2="589" y2="204"/>
<line opacity="0.1" stroke="#000000" stroke-width="1" x1="50" y1="193" x2="589" y2="193"/>
<line opacity="0.1" stroke="#000000" stroke-width="1" x1="50" y1="183" x2="589" y2="183"/>
<line opacity="0.1" stroke="#000000" stroke-width="1" x1="50" y1="172" x2="589" y2="172"/>
<line opacity="0.1" stroke="#000000" stroke-width="1" x1="50" y1="162" x2="589" y2="162"/>
<line opacity="0.1" stroke="#000000" stroke-width="1" x1="50" y1="152" x2="589" y2="152"/>
<line opacity="0.1" stroke="#000000" stroke-width="1" x1="50" y1="141" x2="589" y2="141"/>
<line opacity="0.1" stroke="#000000" stroke-width="1" x1="50" y1="131" x2="589" y2="131"/>
<line opacity="0.1" stroke="#000000" stroke-width="1" x1="50" y1="120" x2="589" y2="120"/>
<line opacity="0.1" stroke="#000000" stroke-width="1" x1="50" y1="110" x2="589" y2="110"/>
<line opacity="0.1" stroke="#000000" stroke-width="1" x1="50" y1="100" x2="589" y2="100"/>
<line opacity="0.1" stroke="#000000" stroke-width="1" x1="50" y1="89" x2="589" y2="89"/>
<line opacity="0.1" stroke="#000000" stroke-width="1" x1="50" y1="79" x2="589" y2="79"/>
<line opacity="0.1" stroke="#000000" stroke-width="1" x1="50" y1="68" x2="589" y2="68"/>
<line opacity="0.1" stroke="#000000" stroke-width="1" x1="50" y1="58" x2="589" y2="58"/>
<line opacity="0.1" stroke="#000000" stroke-width="1" x1="50" y1="48" x2="589" y2="48"/>
<line opacity="0.2" stroke="#000000" stroke-width="1" x1="50" y1="349" x2="589" y2="349"/>
<line opacity="0.2" stroke="#000000" stroke-width="1" x1="50" y1="297" x2="589" y2="297"/>
<line opacity="0.2" stroke="#000000" stroke-width="1" x1="50" y1="245" x2="589" y2="245"/>
<line opacity="0.2" stroke="#000000" stroke-width="1" x1="50" y1="193" x2="589" y2="193"/>
<line opacity="0.2" stroke="#000000" stroke-width="1" x1="50" y1="141" x2="589" y2="141"/>
<line opacity="0.2" stroke="#000000" stroke-width="1" x1="50" y1="89" x2="589" y2="89"/>
<polyline fill="none" opacity="1" stroke="#000000" stroke-width="1" points="49,40 49,349 "/>
<text x="40" y="349" dy="0.5ex" text-anchor="end" font-family="sans-serif" font-size="16.129032258064516" opacity="1" fill="#000000">
0
</text>
<polyline fill="none" opacity="1" stroke="#000000" stroke-width="1" points="44,349 49,349 "/>
<text x="40" y="297" dy="0.5ex" text-anchor="end" font-family="sans-serif" font-size="16.129032258064516" opacity="1" fill="#000000">
5
</text>
<polyline fill="none" opacity="1" stroke="#000000" stroke-width="1" points="44,297 49,297 "/>
<text x="40" y="245" dy="0.5ex" text-anchor="end" font-family="sans-serif" font-size="16.129032258064516" opacity="1" fill="#000000">
10
</text>
<polyline fill="none" opacity="1" stroke="#000000" stroke-width="1" points="44,245 49,245 "/>
<text x="40" y="193" dy="0.5ex" text-anchor="end" font-family="sans-serif" font-size="16.129032258064516" opacity="1" fill="#000000">
15
</text>
<polyline fill="none" opacity="1" stroke="#000000" stroke-width="1" points="44,193 49,193 "/>
<text x="40" y="141" dy="0.5ex" text-anchor="end" font-family="sans-serif" font-size="16.129032258064516" opacity="1" fill="#000000">
20
</text>
<polyline fill="none" opacity="1" stroke="#000000" stroke-width="1" points="44,141 49,141 "/>
<text x="40" y="89" dy="0.5ex" text-anchor="end" font-family="sans-serif" font-size="16.129032258064516" opacity="1" fill="#000000">
25
</text>
<polyline fill="none" opacity="1" stroke="#000000" stroke-width="1" points="44,89 49,89 "/>
<text x="3" y="280" dy="0.76em" text-anchor="start" font-family="sans-serif" font-size="16.129032258064516" opacity="1" fill="#000000" transform="rotate(270, 3, 280)">
Start-Up Latency [s]
</text>
<rect x="52" y="346" width="65" height="3" opacity="1" fill="#6666FF" stroke="none"/>
<rect x="186" y="345" width="66" height="4" opacity="1" fill="#6666FF" stroke="none"/>
<rect x="321" y="349" width="65" height="0" opacity="1" fill="#6666FF" stroke="none"/>
<rect x="456" y="349" width="65" height="0" opacity="1" fill="#6666FF" stroke="none"/>
<rect x="52" y="343" width="65" height="3" opacity="1" fill="#66FFB2" stroke="none"/>
<rect x="186" y="342" width="66" height="3" opacity="1" fill="#66FFB2" stroke="none"/>
<rect x="321" y="335" width="65" height="14" opacity="1" fill="#66FFB2" stroke="none"/>
<rect x="456" y="349" width="65" height="0" opacity="1" fill="#66FFB2" stroke="none"/>
<rect x="52" y="342" width="65" height="1" opacity="1" fill="#F5A142" stroke="none"/>
<rect x="186" y="341" width="66" height="1" opacity="1" fill="#F5A142" stroke="none"/>
<rect x="321" y="128" width="65" height="207" opacity="1" fill="#F5A142" stroke="none"/>
<rect x="456" y="349" width="65" height="0" opacity="1" fill="#F5A142" stroke="none"/>
<rect x="52" y="342" width="65" height="0" opacity="1" fill="#FF66B2" stroke="none"/>
<rect x="186" y="341" width="66" height="0" opacity="1" fill="#FF66B2" stroke="none"/>
<rect x="321" y="126" width="65" height="2" opacity="1" fill="#FF66B2" stroke="none"/>
<rect x="456" y="349" width="65" height="0" opacity="1" fill="#FF66B2" stroke="none"/>
<rect x="52" y="342" width="65" height="0" opacity="1" fill="#FF66B2" stroke="none"/>
<rect x="186" y="341" width="66" height="0" opacity="1" fill="#FF66B2" stroke="none"/>
<rect x="321" y="123" width="65" height="3" opacity="1" fill="#FF66B2" stroke="none"/>
<rect x="456" y="349" width="65" height="0" opacity="1" fill="#FF66B2" stroke="none"/>
<rect x="52" y="160" width="65" height="182" opacity="1" fill="#FFFF66" stroke="none"/>
<rect x="186" y="338" width="66" height="3" opacity="1" fill="#FFFF66" stroke="none"/>
<rect x="321" y="111" width="65" height="12" opacity="1" fill="#FFFF66" stroke="none"/>
<rect x="456" y="349" width="65" height="0" opacity="1" fill="#FFFF66" stroke="none"/>
<rect x="52" y="145" width="65" height="15" opacity="1" fill="#FFFF66" stroke="none"/>
<rect x="186" y="319" width="66" height="19" opacity="1" fill="#FFFF66" stroke="none"/>
<rect x="321" y="98" width="65" height="13" opacity="1" fill="#FFFF66" stroke="none"/>
<rect x="456" y="349" width="65" height="0" opacity="1" fill="#FFFF66" stroke="none"/>
<rect x="52" y="81" width="65" height="64" opacity="1" fill="#32328E" stroke="none"/>
<rect x="186" y="206" width="66" height="113" opacity="1" fill="#32328E" stroke="none"/>
<rect x="321" y="40" width="65" height="58" opacity="1" fill="#32328E" stroke="none"/>
<rect x="456" y="349" width="65" height="0" opacity="1" fill="#32328E" stroke="none"/>
<polyline fill="none" opacity="1" stroke="#000000" stroke-width="1" points="52,81 117,81 117,349 52,349 52,81 "/>
<polyline fill="none" opacity="1" stroke="#000000" stroke-width="1" points="187,206 252,206 252,349 187,349 187,206 "/>
<polyline fill="none" opacity="1" stroke="#000000" stroke-width="1" points="322,40 386,40 386,349 322,349 322,40 "/>
<polyline fill="none" opacity="1" stroke="#000000" stroke-width="1" points="456,349 521,349 521,349 456,349 456,349 "/>
<rect x="117" y="346" width="65" height="3" opacity="0.6" fill="#6666FF" stroke="none"/>
<rect x="252" y="346" width="65" height="3" opacity="0.6" fill="#6666FF" stroke="none"/>
<rect x="386" y="349" width="66" height="0" opacity="0.6" fill="#6666FF" stroke="none"/>
<rect x="521" y="349" width="66" height="0" opacity="0.6" fill="#6666FF" stroke="none"/>
<rect x="117" y="343" width="65" height="3" opacity="0.6" fill="#66FFB2" stroke="none"/>
<rect x="252" y="343" width="65" height="3" opacity="0.6" fill="#66FFB2" stroke="none"/>
<rect x="386" y="345" width="66" height="4" opacity="0.6" fill="#66FFB2" stroke="none"/>
<rect x="521" y="349" width="66" height="0" opacity="0.6" fill="#66FFB2" stroke="none"/>
<rect x="117" y="343" width="65" height="0" opacity="0.6" fill="#F5A142" stroke="none"/>
<rect x="252" y="343" width="65" height="0" opacity="0.6" fill="#F5A142" stroke="none"/>
<rect x="386" y="345" width="66" height="0" opacity="0.6" fill="#F5A142" stroke="none"/>
<rect x="521" y="349" width="66" height="0" opacity="0.6" fill="#F5A142" stroke="none"/>
<rect x="117" y="343" width="65" height="0" opacity="0.6" fill="#FF66B2" stroke="none"/>
<rect x="252" y="343" width="65" height="0" opacity="0.6" fill="#FF66B2" stroke="none"/>
<rect x="386" y="344" width="66" height="1" opacity="0.6" fill="#FF66B2" stroke="none"/>
<rect x="521" y="349" width="66" height="0" opacity="0.6" fill="#FF66B2" stroke="none"/>
<rect x="117" y="343" width="65" height="0" opacity="0.6" fill="#FF66B2" stroke="none"/>
<rect x="252" y="342" width="65" height="1" opacity="0.6" fill="#FF66B2" stroke="none"/>
<rect x="386" y="344" width="66" height="0" opacity="0.6" fill="#FF66B2" stroke="none"/>
<rect x="521" y="349" width="66" height="0" opacity="0.6" fill="#FF66B2" stroke="none"/>
<rect x="117" y="160" width="65" height="183" opacity="0.6" fill="#FFFF66" stroke="none"/>
<rect x="252" y="340" width="65" height="2" opacity="0.6" fill="#FFFF66" stroke="none"/>
<rect x="386" y="333" width="66" height="11" opacity="0.6" fill="#FFFF66" stroke="none"/>
<rect x="521" y="349" width="66" height="0" opacity="0.6" fill="#FFFF66" stroke="none"/>
<rect x="117" y="146" width="65" height="14" opacity="0.6" fill="#FFFF66" stroke="none"/>
<rect x="252" y="321" width="65" height="19" opacity="0.6" fill="#FFFF66" stroke="none"/>
<rect x="386" y="320" width="66" height="13" opacity="0.6" fill="#FFFF66" stroke="none"/>
<rect x="521" y="349" width="66" height="0" opacity="0.6" fill="#FFFF66" stroke="none"/>
<rect x="117" y="79" width="65" height="67" opacity="0.6" fill="#32328E" stroke="none"/>
<rect x="252" y="208" width="65" height="113" opacity="0.6" fill="#32328E" stroke="none"/>
<rect x="386" y="241" width="66" height="79" opacity="0.6" fill="#32328E" stroke="none"/>
<rect x="521" y="349" width="66" height="0" opacity="0.6" fill="#32328E" stroke="none"/>
<polyline fill="none" opacity="1" stroke="#000000" stroke-width="1" points="117,79 182,79 182,349 117,349 117,79 "/>
<polyline fill="none" opacity="1" stroke="#000000" stroke-width="1" points="252,208 316,208 316,349 252,349 252,208 "/>
<polyline fill="none" opacity="1" stroke="#000000" stroke-width="1" points="386,241 451,241 451,349 386,349 386,241 "/>
<polyline fill="none" opacity="1" stroke="#000000" stroke-width="1" points="521,349 586,349 586,349 521,349 521,349 "/>
<polyline fill="none" opacity="1" stroke="#000000" stroke-width="1" points="50,40 589,40 "/>
<polyline fill="none" opacity="1" stroke="#000000" stroke-width="1" points="589,349 589,40 "/>
<polyline fill="none" opacity="1" stroke="#000000" stroke-width="1" points="50,349 589,349 "/>
<text x="80" y="360" dy="0.76em" text-anchor="start" font-family="sans-serif" font-size="16.129032258064516" opacity="1" fill="#000000">
guest-pull
</text>
<text x="200" y="360" dy="0.76em" text-anchor="start" font-family="sans-serif" font-size="16.129032258064516" opacity="1" fill="#000000">
guest-lazy
</text>
<text x="360" y="360" dy="0.76em" text-anchor="start" font-family="sans-serif" font-size="16.129032258064516" opacity="1" fill="#000000">
host-mount
</text>
<text x="510" y="360" dy="0.76em" text-anchor="start" font-family="sans-serif" font-size="16.129032258064516" opacity="1" fill="#000000">
sc2
</text>
<rect x="70" y="6" width="20" height="20" opacity="1" fill="#F5A142" stroke="none"/>
<text x="100" y="11" dy="0.76em" text-anchor="start" font-family="sans-serif" font-size="16.129032258064516" opacity="1" fill="#000000">
pull-image-host
</text>
<rect x="230" y="6" width="20" height="20" opacity="1" fill="#FFFF66" stroke="none"/>
<text x="260" y="11" dy="0.76em" text-anchor="start" font-family="sans-serif" font-size="16.129032258064516" opacity="1" fill="#000000">
pull-image-guest
</text>
<rect x="405" y="6" width="20" height="20" opacity="1" fill="#32328E" stroke="none"/>
<text x="435" y="11" dy="0.76em" text-anchor="start" font-family="sans-serif" font-size="16.129032258064516" opacity="1" fill="#000000">
func-runtime
</text>
<text x="75" y="90" dy="0.76em" text-anchor="start" font-family="sans-serif" font-size="11.290322580645162" opacity="1" fill="#000000">
cold
</text>
<text x="130" y="90" dy="0.76em" text-anchor="start" font-family="sans-serif" font-size="11.290322580645162" opacity="1" fill="#000000">
warm
</text>
</svg>
