<svg width="600" height="400" viewBox="0 0 600 400" xmlns="http://www.w3.org/2000/svg">
<rect x="0" y="0" width="600" height="400" opacity="1" fill="#FFFFFF" stroke="none"/>
<line opacity="0.1" stroke="#000000" stroke-width="1" x1="50" y1="349" x2="589" y2="349"/>
<line opacity="0.1" stroke="#000000" stroke-width="1" x1="50" y1="335" x2="589" y2="335"/>
<line opacity="0.1" stroke="#000000" stroke-width="1" x1="50" y1="320" x2="589" y2="320"/>
<line opacity="0.1" stroke="#000000" stroke-width="1" x1="50" y1="305" x2="589" y2="305"/>
<line opacity="0.1" stroke="#000000" stroke-width="1" x1="50" y1="291" x2="589" y2="291"/>
<line opacity="0.1" stroke="#000000" stroke-width="1" x1="50" y1="276" x2="589" y2="276"/>
<line opacity="0.1" stroke="#000000" stroke-width="1" x1="50" y1="261" x2="589" y2="261"/>
<line opacity="0.1" stroke="#000000" stroke-width="1" x1="50" y1="247" x2="589" y2="247"/>
<line opacity="0.1" stroke="#000000" stroke-width="1" x1="50" y1="232" x2="589" y2="232"/>
<line opacity="0.1" stroke="#000000" stroke-width="1" x1="50" y1="217" x2="589" y2="217"/>
<line opacity="0.1" stroke="#000000" stroke-width="1" x1="50" y1="202" x2="589" y2="202"/>
<line opacity="0.1" stroke="#000000" stroke-width="1" x1="50" y1="188" x2="589" y2="188"/>
<line opacity="0.1" stroke="#000000" stroke-width="1" x1="50" y1="173" x2="589" y2="173"/>
<line opacity="0.1" stroke="#000000" stroke-width="1" x1="50" y1="158" x2="589" y2="158"/>
<line opacity="0.1" stroke="#000000" stroke-width="1" x1="50" y1="144" x2="589" y2="144"/>
<line opacity="0.1" stroke="#000000" stroke-width="1" x1="50" y1="129" x2="589" y2="129"/>
<line opacity="0.1" stroke="#000000" stroke-width="1" x1="50" y1="114" x2="589" y2="114"/>
<line opacity="0.1" stroke="#000000" stroke-width="1" x1="50" y1="100" x2="589" y2="100"/>
<line opacity="0.1" stroke="#000000" stroke-width="1" x1="50" y1="85" x2="589" y2="85"/>
<line opacity="0.1" stroke="#000000" stroke-width="1" x1="50" y1="70" x2="589" y2="70"/>
<line opacity="0.1" stroke="#000000" stroke-width="1" x1="50" y1="55" x2="589" y2="55"/>
<line opacity="0.1" stroke="#000000" stroke-width="1" x1="50" y1="41" x2="589" y2="41"/>
<line opacity="0.2" stroke="#000000" stroke-width="1" x1="50" y1="349" x2="589" y2="349"/>
<line opacity="0.2" stroke="#000000" stroke-width="1" x1="50" y1="291" x2="589" y2="291"/>
<line opacity="0.2" stroke="#000000" stroke-width="1" x1="50" y1="232" x2="589" y2="232"/>
<line opacity="0.2" stroke="#000000" stroke-width="1" x1="50" y1="173" x2="589" y2="173"/>
<line opacity="0.2" stroke="#000000" stroke-width="1" x1="50" y1="114" x2="589" y2="114"/>
<line opacity="0.2" stroke="#000000" stroke-width="1" x1="50" y1="55" x2="589" y2="55"/>
<polyline fill="none" opacity="1" stroke="#000000" stroke-width="1" points="49,40 49,349 "/>
<text x="40" y="349" dy="0.5ex" text-anchor="end" font-family="sans-serif" font-size="16.129032258064516" opacity="1" fill="#000000">
0
</text>
<polyline fill="none" opacity="1" stroke="#000000" stroke-width="1" points="44,349 49,349 "/>
<text x="40" y="291" dy="0.5ex" text-anchor="end" font-family="sans-serif" font-size="16.129032258064516" opacity="1" fill="#000000">
2
</text>
<polyline fill="none" opacity="1" stroke="#000000" stroke-width="1" points="44,291 49,291 "/>
<text x="40" y="232" dy="0.5ex" text-anchor="end" font-family="sans-serif" font-size="16.129032258064516" opacity="1" fill="#000000">
4
</text>
<polyline fill="none" opacity="1" stroke="#000000" stroke-width="1" points="44,232 49,232 "/>
<text x="40" y="173" dy="0.5ex" text-anchor="end" font-family="sans-serif" font-size="16.129032258064516" opacity="1" fill="#000000">
6
</text>
<polyline fill="none" opacity="1" stroke="#000000" stroke-width="1" points="44,173 49,173 "/>
<text x="40" y="114" dy="0.5ex" text-anchor="end" font-family="sans-serif" font-size="16.129032258064516" opacity="1" fill="#000000">
8
</text>
<polyline fill="none" opacity="1" stroke="#000000" stroke-width="1" points="44,114 49,114 "/>
<text x="40" y="55" dy="0.5ex" text-anchor="end" font-family="sans-serif" font-size="16.129032258064516" opacity="1" fill="#000000">
10
</text>
<polyline fill="none" opacity="1" stroke="#000000" stroke-width="1" points="44,55 49,55 "/>
<text x="3" y="280" dy="0.76em" text-anchor="start" font-family="sans-serif" font-size="16.129032258064516" opacity="1" fill="#000000" transform="rotate(270, 3, 280)">
Start-Up Latency [s]
</text>
<rect x="52" y="337" width="65" height="12" opacity="1" fill="#6666FF" stroke="none"/>
<rect x="186" y="339" width="66" height="10" opacity="1" fill="#6666FF" stroke="none"/>
<rect x="321" y="349" width="65" height="0" opacity="1" fill="#6666FF" stroke="none"/>
<rect x="456" y="349" width="65" height="0" opacity="1" fill="#6666FF" stroke="none"/>
<rect x="52" y="330" width="65" height="7" opacity="1" fill="#66FFB2" stroke="none"/>
<rect x="186" y="332" width="66" height="7" opacity="1" fill="#66FFB2" stroke="none"/>
<rect x="321" y="311" width="65" height="38" opacity="1" fill="#66FFB2" stroke="none"/>
<rect x="456" y="349" width="65" height="0" opacity="1" fill="#66FFB2" stroke="none"/>
<rect x="52" y="328" width="65" height="2" opacity="1" fill="#F5A142" stroke="none"/>
<rect x="186" y="330" width="66" height="2" opacity="1" fill="#F5A142" stroke="none"/>
<rect x="321" y="76" width="65" height="235" opacity="1" fill="#F5A142" stroke="none"/>
<rect x="456" y="349" width="65" height="0" opacity="1" fill="#F5A142" stroke="none"/>
<rect x="52" y="327" width="65" height="1" opacity="1" fill="#FF66B2" stroke="none"/>
<rect x="186" y="329" width="66" height="1" opacity="1" fill="#FF66B2" stroke="none"/>
<rect x="321" y="74" width="65" height="2" opacity="1" fill="#FF66B2" stroke="none"/>
<rect x="456" y="349" width="65" height="0" opacity="1" fill="#FF66B2" stroke="none"/>
<rect x="52" y="326" width="65" height="1" opacity="1" fill="#FF66B2" stroke="none"/>
<rect x="186" y="328" width="66" height="1" opacity="1" fill="#FF66B2" stroke="none"/>
<rect x="321" y="73" width="65" height="1" opacity="1" fill="#FF66B2" stroke="none"/>
<rect x="456" y="349" width="65" height="0" opacity="1" fill="#FF66B2" stroke="none"/>
<rect x="52" y="168" width="65" height="158" opacity="1" fill="#FFFF66" stroke="none"/>
<rect x="186" y="321" width="66" height="7" opacity="1" fill="#FFFF66" stroke="none"/>
<rect x="321" y="47" width="65" height="26" opacity="1" fill="#FFFF66" stroke="none"/>
<rect x="456" y="349" width="65" height="0" opacity="1" fill="#FFFF66" stroke="none"/>
<rect x="52" y="118" width="65" height="50" opacity="1" fill="#FFFF66" stroke="none"/>
<rect x="186" y="257" width="66" height="64" opacity="1" fill="#FFFF66" stroke="none"/>
<rect x="321" y="40" width="65" height="7" opacity="1" fill="#FFFF66" stroke="none"/>
<rect x="456" y="349" width="65" height="0" opacity="1" fill="#FFFF66" stroke="none"/>
<rect x="52" y="91" width="65" height="27" opacity="1" fill="#32328E" stroke="none"/>
<rect x="186" y="226" width="66" height="31" opacity="1" fill="#32328E" stroke="none"/>
<rect x="321" y="40" width="65" height="0" opacity="1" fill="#32328E" stroke="none"/>
<rect x="456" y="349" width="65" height="0" opacity="1" fill="#32328E" stroke="none"/>
<polyline fill="none" opacity="1" stroke="#000000" stroke-width="1" points="52,91 117,91 117,349 52,349 52,91 "/>
<polyline fill="none" opacity="1" stroke="#000000" stroke-width="1" points="187,226 252,226 252,349 187,349 187,226 "/>
<polyline fill="none" opacity="1" stroke="#000000" stroke-width="1" points="322,40 386,40 386,349 322,349 322,40 "/>
<polyline fill="none" opacity="1" stroke="#000000" stroke-width="1" points="456,349 521,349 521,349 456,349 456,349 "/>
<rect x="117" y="336" width="65" height="13" opacity="0.6" fill="#6666FF" stroke="none"/>
<rect x="252" y="336" width="65" height="13" opacity="0.6" fill="#6666FF" stroke="none"/>
<rect x="386" y="349" width="66" height="0" opacity="0.6" fill="#6666FF" stroke="none"/>
<rect x="521" y="349" width="66" height="0" opacity="0.6" fill="#6666FF" stroke="none"/>
<rect x="117" y="328" width="65" height="8" opacity="0.6" fill="#66FFB2" stroke="none"/>
<rect x="252" y="329" width="65" height="7" opacity="0.6" fill="#66FFB2" stroke="none"/>
<rect x="386" y="335" width="66" height="14" opacity="0.6" fill="#66FFB2" stroke="none"/>
<rect x="521" y="349" width="66" height="0" opacity="0.6" fill="#66FFB2" stroke="none"/>
<rect x="117" y="328" width="65" height="0" opacity="0.6" fill="#F5A142" stroke="none"/>
<rect x="252" y="329" width="65" height="0" opacity="0.6" fill="#F5A142" stroke="none"/>
<rect x="386" y="335" width="66" height="0" opacity="0.6" fill="#F5A142" stroke="none"/>
<rect x="521" y="349" width="66" height="0" opacity="0.6" fill="#F5A142" stroke="none"/>
<rect x="117" y="327" width="65" height="1" opacity="0.6" fill="#FF66B2" stroke="none"/>
<rect x="252" y="328" width="65" height="1" opacity="0.6" fill="#FF66B2" stroke="none"/>
<rect x="386" y="334" width="66" height="1" opacity="0.6" fill="#FF66B2" stroke="none"/>
<rect x="521" y="349" width="66" height="0" opacity="0.6" fill="#FF66B2" stroke="none"/>
<rect x="117" y="327" width="65" height="0" opacity="0.6" fill="#FF66B2" stroke="none"/>
<rect x="252" y="327" width="65" height="1" opacity="0.6" fill="#FF66B2" stroke="none"/>
<rect x="386" y="333" width="66" height="1" opacity="0.6" fill="#FF66B2" stroke="none"/>
<rect x="521" y="349" width="66" height="0" opacity="0.6" fill="#FF66B2" stroke="none"/>
<rect x="117" y="169" width="65" height="158" opacity="0.6" fill="#FFFF66" stroke="none"/>
<rect x="252" y="320" width="65" height="7" opacity="0.6" fill="#FFFF66" stroke="none"/>
<rect x="386" y="308" width="66" height="25" opacity="0.6" fill="#FFFF66" stroke="none"/>
<rect x="521" y="349" width="66" height="0" opacity="0.6" fill="#FFFF66" stroke="none"/>
<rect x="117" y="119" width="65" height="50" opacity="0.6" fill="#FFFF66" stroke="none"/>
<rect x="252" y="256" width="65" height="64" opacity="0.6" fill="#FFFF66" stroke="none"/>
<rect x="386" y="270" width="66" height="38" opacity="0.6" fill="#FFFF66" stroke="none"/>
<rect x="521" y="349" width="66" height="0" opacity="0.6" fill="#FFFF66" stroke="none"/>
<rect x="117" y="87" width="65" height="32" opacity="0.6" fill="#32328E" stroke="none"/>
<rect x="252" y="227" width="65" height="29" opacity="0.6" fill="#32328E" stroke="none"/>
<rect x="386" y="248" width="66" height="22" opacity="0.6" fill="#32328E" stroke="none"/>
<rect x="521" y="349" width="66" height="0" opacity="0.6" fill="#32328E" stroke="none"/>
<polyline fill="none" opacity="1" stroke="#000000" stroke-width="1" points="117,87 182,87 182,349 117,349 117,87 "/>
<polyline fill="none" opacity="1" stroke="#000000" stroke-width="1" points="252,227 316,227 316,349 252,349 252,227 "/>
<polyline fill="none" opacity="1" stroke="#000000" stroke-width="1" points="386,248 451,248 451,349 386,349 386,248 "/>
<polyline fill="none" opacity="1" stroke="#000000" stroke-width="1" points="521,349 586,349 586,349 521,349 521,349 "/>
<polyline fill="none" opacity="1" stroke="#000000" stroke-width="1" points="50,40 589,40 "/>
<polyline fill="none" opacity="1" stroke="#000000" stroke-width="1" points="589,349 589,40 "/>
<polyline fill="none" opacity="1" stroke="#000000" stroke-width="1" points="50,349 589,349 "/>
<text x="80" y="360" dy="0.76em" text-anchor="start" font-family="sans-serif" font-size="16.129032258064516" opacity="1" fill="#000000">
guest-pull
</text>
<text x="200" y="360" dy="0.76em" text-anchor="start" font-family="sans-serif" font-size="16.129032258064516" opacity="1" fill="#000000">
guest-lazy
</text>
<text x="360" y="360" dy="0.76em" text-anchor="start" font-family="sans-serif" font-size="16.129032258064516" opacity="1" fill="#000000">
host-mount
</text>
<text x="510" y="360" dy="0.76em" text-anchor="start" font-family="sans-serif" font-size="16.129032258064516" opacity="1" fill="#000000">
sc2
</text>
<rect x="70" y="6" width="20" height="20" opacity="1" fill="#F5A142" stroke="none"/>
<text x="100" y="11" dy="0.76em" text-anchor="start" font-family="sans-serif" font-size="16.129032258064516" opacity="1" fill="#000000">
pull-image-host
</text>
<rect x="230" y="6" width="20" height="20" opacity="1" fill="#FFFF66" stroke="none"/>
<text x="260" y="11" dy="0.76em" text-anchor="start" font-family="sans-serif" font-size="16.129032258064516" opacity="1" fill="#000000">
pull-image-guest
</text>
<rect x="405" y="6" width="20" height="20" opacity="1" fill="#32328E" stroke="none"/>
<text x="435" y="11" dy="0.76em" text-anchor="start" font-family="sans-serif" font-size="16.129032258064516" opacity="1" fill="#000000">
func-runtime
</text>
<text x="75" y="90" dy="0.76em" text-anchor="start" font-family="sans-serif" font-size="11.290322580645162" opacity="1" fill="#000000">
cold
</text>
<text x="130" y="90" dy="0.76em" text-anchor="start" font-family="sans-serif" font-size="11.290322580645162" opacity="1" fill="#000000">
warm
</text>
</svg>
