<svg width="400" height="600" viewBox="0 0 400 600" xmlns="http://www.w3.org/2000/svg">
<rect x="0" y="0" width="400" height="600" opacity="1" fill="#FFFFFF" stroke="none"/>
<line opacity="0.1" stroke="#000000" stroke-width="1" x1="50" y1="549" x2="389" y2="549"/>
<line opacity="0.1" stroke="#000000" stroke-width="1" x1="50" y1="543" x2="389" y2="543"/>
<line opacity="0.1" stroke="#000000" stroke-width="1" x1="50" y1="536" x2="389" y2="536"/>
<line opacity="0.1" stroke="#000000" stroke-width="1" x1="50" y1="529" x2="389" y2="529"/>
<line opacity="0.1" stroke="#000000" stroke-width="1" x1="50" y1="523" x2="389" y2="523"/>
<line opacity="0.1" stroke="#000000" stroke-width="1" x1="50" y1="516" x2="389" y2="516"/>
<line opacity="0.1" stroke="#000000" stroke-width="1" x1="50" y1="509" x2="389" y2="509"/>
<line opacity="0.1" stroke="#000000" stroke-width="1" x1="50" y1="502" x2="389" y2="502"/>
<line opacity="0.1" stroke="#000000" stroke-width="1" x1="50" y1="496" x2="389" y2="496"/>
<line opacity="0.1" stroke="#000000" stroke-width="1" x1="50" y1="489" x2="389" y2="489"/>
<line opacity="0.1" stroke="#000000" stroke-width="1" x1="50" y1="482" x2="389" y2="482"/>
<line opacity="0.1" stroke="#000000" stroke-width="1" x1="50" y1="476" x2="389" y2="476"/>
<line opacity="0.1" stroke="#000000" stroke-width="1" x1="50" y1="469" x2="389" y2="469"/>
<line opacity="0.1" stroke="#000000" stroke-width="1" x1="50" y1="462" x2="389" y2="462"/>
<line opacity="0.1" stroke="#000000" stroke-width="1" x1="50" y1="455" x2="389" y2="455"/>
<line opacity="0.1" stroke="#000000" stroke-width="1" x1="50" y1="449" x2="389" y2="449"/>
<line opacity="0.1" stroke="#000000" stroke-width="1" x1="50" y1="442" x2="389" y2="442"/>
<line opacity="0.1" stroke="#000000" stroke-width="1" x1="50" y1="435" x2="389" y2="435"/>
<line opacity="0.1" stroke="#000000" stroke-width="1" x1="50" y1="428" x2="389" y2="428"/>
<line opacity="0.1" stroke="#000000" stroke-width="1" x1="50" y1="422" x2="389" y2="422"/>
<line opacity="0.1" stroke="#000000" stroke-width="1" x1="50" y1="415" x2="389" y2="415"/>
<line opacity="0.1" stroke="#000000" stroke-width="1" x1="50" y1="408" x2="389" y2="408"/>
<line opacity="0.1" stroke="#000000" stroke-width="1" x1="50" y1="402" x2="389" y2="402"/>
<line opacity="0.1" stroke="#000000" stroke-width="1" x1="50" y1="395" x2="389" y2="395"/>
<line opacity="0.1" stroke="#000000" stroke-width="1" x1="50" y1="388" x2="389" y2="388"/>
<line opacity="0.1" stroke="#000000" stroke-width="1" x1="50" y1="381" x2="389" y2="381"/>
<line opacity="0.1" stroke="#000000" stroke-width="1" x1="50" y1="375" x2="389" y2="375"/>
<line opacity="0.1" stroke="#000000" stroke-width="1" x1="50" y1="368" x2="389" y2="368"/>
<line opacity="0.1" stroke="#000000" stroke-width="1" x1="50" y1="361" x2="389" y2="361"/>
<line opacity="0.1" stroke="#000000" stroke-width="1" x1="50" y1="354" x2="389" y2="354"/>
<line opacity="0.1" stroke="#000000" stroke-width="1" x1="50" y1="348" x2="389" y2="348"/>
<line opacity="0.1" stroke="#000000" stroke-width="1" x1="50" y1="341" x2="389" y2="341"/>
<line opacity="0.1" stroke="#000000" stroke-width="1" x1="50" y1="334" x2="389" y2="334"/>
<line opacity="0.1" stroke="#000000" stroke-width="1" x1="50" y1="328" x2="389" y2="328"/>
<line opacity="0.1" stroke="#000000" stroke-width="1" x1="50" y1="321" x2="389" y2="321"/>
<line opacity="0.1" stroke="#000000" stroke-width="1" x1="50" y1="314" x2="389" y2="314"/>
<line opacity="0.1" stroke="#000000" stroke-width="1" x1="50" y1="307" x2="389" y2="307"/>
<line opacity="0.1" stroke="#000000" stroke-width="1" x1="50" y1="301" x2="389" y2="301"/>
<line opacity="0.1" stroke="#000000" stroke-width="1" x1="50" y1="294" x2="389" y2="294"/>
<line opacity="0.1" stroke="#000000" stroke-width="1" x1="50" y1="287" x2="389" y2="287"/>
<line opacity="0.1" stroke="#000000" stroke-width="1" x1="50" y1="280" x2="389" y2="280"/>
<line opacity="0.1" stroke="#000000" stroke-width="1" x1="50" y1="274" x2="389" y2="274"/>
<line opacity="0.1" stroke="#000000" stroke-width="1" x1="50" y1="267" x2="389" y2="267"/>
<line opacity="0.1" stroke="#000000" stroke-width="1" x1="50" y1="260" x2="389" y2="260"/>
<line opacity="0.1" stroke="#000000" stroke-width="1" x1="50" y1="254" x2="389" y2="254"/>
<line opacity="0.1" stroke="#000000" stroke-width="1" x1="50" y1="247" x2="389" y2="247"/>
<line opacity="0.1" stroke="#000000" stroke-width="1" x1="50" y1="240" x2="389" y2="240"/>
<line opacity="0.1" stroke="#000000" stroke-width="1" x1="50" y1="233" x2="389" y2="233"/>
<line opacity="0.1" stroke="#000000" stroke-width="1" x1="50" y1="227" x2="389" y2="227"/>
<line opacity="0.1" stroke="#000000" stroke-width="1" x1="50" y1="220" x2="389" y2="220"/>
<line opacity="0.1" stroke="#000000" stroke-width="1" x1="50" y1="213" x2="389" y2="213"/>
<line opacity="0.1" stroke="#000000" stroke-width="1" x1="50" y1="206" x2="389" y2="206"/>
<line opacity="0.1" stroke="#000000" stroke-width="1" x1="50" y1="200" x2="389" y2="200"/>
<line opacity="0.1" stroke="#000000" stroke-width="1" x1="50" y1="193" x2="389" y2="193"/>
<line opacity="0.1" stroke="#000000" stroke-width="1" x1="50" y1="186" x2="389" y2="186"/>
<line opacity="0.1" stroke="#000000" stroke-width="1" x1="50" y1="180" x2="389" y2="180"/>
<line opacity="0.1" stroke="#000000" stroke-width="1" x1="50" y1="173" x2="389" y2="173"/>
<line opacity="0.1" stroke="#000000" stroke-width="1" x1="50" y1="166" x2="389" y2="166"/>
<line opacity="0.1" stroke="#000000" stroke-width="1" x1="50" y1="159" x2="389" y2="159"/>
<line opacity="0.1" stroke="#000000" stroke-width="1" x1="50" y1="153" x2="389" y2="153"/>
<line opacity="0.1" stroke="#000000" stroke-width="1" x1="50" y1="146" x2="389" y2="146"/>
<line opacity="0.1" stroke="#000000" stroke-width="1" x1="50" y1="139" x2="389" y2="139"/>
<line opacity="0.1" stroke="#000000" stroke-width="1" x1="50" y1="132" x2="389" y2="132"/>
<line opacity="0.1" stroke="#000000" stroke-width="1" x1="50" y1="126" x2="389" y2="126"/>
<line opacity="0.1" stroke="#000000" stroke-width="1" x1="50" y1="119" x2="389" y2="119"/>
<line opacity="0.1" stroke="#000000" stroke-width="1" x1="50" y1="112" x2="389" y2="112"/>
<line opacity="0.1" stroke="#000000" stroke-width="1" x1="50" y1="106" x2="389" y2="106"/>
<line opacity="0.1" stroke="#000000" stroke-width="1" x1="50" y1="99" x2="389" y2="99"/>
<line opacity="0.1" stroke="#000000" stroke-width="1" x1="50" y1="92" x2="389" y2="92"/>
<line opacity="0.1" stroke="#000000" stroke-width="1" x1="50" y1="85" x2="389" y2="85"/>
<line opacity="0.1" stroke="#000000" stroke-width="1" x1="50" y1="79" x2="389" y2="79"/>
<line opacity="0.1" stroke="#000000" stroke-width="1" x1="50" y1="72" x2="389" y2="72"/>
<line opacity="0.1" stroke="#000000" stroke-width="1" x1="50" y1="65" x2="389" y2="65"/>
<line opacity="0.1" stroke="#000000" stroke-width="1" x1="50" y1="58" x2="389" y2="58"/>
<line opacity="0.1" stroke="#000000" stroke-width="1" x1="50" y1="52" x2="389" y2="52"/>
<line opacity="0.1" stroke="#000000" stroke-width="1" x1="50" y1="45" x2="389" y2="45"/>
<line opacity="0.2" stroke="#000000" stroke-width="1" x1="50" y1="549" x2="389" y2="549"/>
<line opacity="0.2" stroke="#000000" stroke-width="1" x1="50" y1="482" x2="389" y2="482"/>
<line opacity="0.2" stroke="#000000" stroke-width="1" x1="50" y1="415" x2="389" y2="415"/>
<line opacity="0.2" stroke="#000000" stroke-width="1" x1="50" y1="348" x2="389" y2="348"/>
<line opacity="0.2" stroke="#000000" stroke-width="1" x1="50" y1="280" x2="389" y2="280"/>
<line opacity="0.2" stroke="#000000" stroke-width="1" x1="50" y1="213" x2="389" y2="213"/>
<line opacity="0.2" stroke="#000000" stroke-width="1" x1="50" y1="146" x2="389" y2="146"/>
<line opacity="0.2" stroke="#000000" stroke-width="1" x1="50" y1="79" x2="389" y2="79"/>
<polyline fill="none" opacity="1" stroke="#000000" stroke-width="1" points="49,40 49,549 "/>
<text x="40" y="549" dy="0.5ex" text-anchor="end" font-family="sans-serif" font-size="16.129032258064516" opacity="1" fill="#000000">
0
</text>
<polyline fill="none" opacity="1" stroke="#000000" stroke-width="1" points="44,549 49,549 "/>
<text x="40" y="482" dy="0.5ex" text-anchor="end" font-family="sans-serif" font-size="16.129032258064516" opacity="1" fill="#000000">
2
</text>
<polyline fill="none" opacity="1" stroke="#000000" stroke-width="1" points="44,482 49,482 "/>
<text x="40" y="415" dy="0.5ex" text-anchor="end" font-family="sans-serif" font-size="16.129032258064516" opacity="1" fill="#000000">
4
</text>
<polyline fill="none" opacity="1" stroke="#000000" stroke-width="1" points="44,415 49,415 "/>
<text x="40" y="348" dy="0.5ex" text-anchor="end" font-family="sans-serif" font-size="16.129032258064516" opacity="1" fill="#000000">
6
</text>
<polyline fill="none" opacity="1" stroke="#000000" stroke-width="1" points="44,348 49,348 "/>
<text x="40" y="280" dy="0.5ex" text-anchor="end" font-family="sans-serif" font-size="16.129032258064516" opacity="1" fill="#000000">
8
</text>
<polyline fill="none" opacity="1" stroke="#000000" stroke-width="1" points="44,280 49,280 "/>
<text x="40" y="213" dy="0.5ex" text-anchor="end" font-family="sans-serif" font-size="16.129032258064516" opacity="1" fill="#000000">
10
</text>
<polyline fill="none" opacity="1" stroke="#000000" stroke-width="1" points="44,213 49,213 "/>
<text x="40" y="146" dy="0.5ex" text-anchor="end" font-family="sans-serif" font-size="16.129032258064516" opacity="1" fill="#000000">
12
</text>
<polyline fill="none" opacity="1" stroke="#000000" stroke-width="1" points="44,146 49,146 "/>
<text x="40" y="79" dy="0.5ex" text-anchor="end" font-family="sans-serif" font-size="16.129032258064516" opacity="1" fill="#000000">
14
</text>
<polyline fill="none" opacity="1" stroke="#000000" stroke-width="1" points="44,79 49,79 "/>
<text x="3" y="360" dy="0.76em" text-anchor="start" font-family="sans-serif" font-size="16.129032258064516" opacity="1" fill="#000000" transform="rotate(270, 3, 360)">
Cold Start Latency [s]
</text>
<rect x="52" y="516" width="109" height="33" opacity="1" fill="#6666FF" stroke="none"/>
<rect x="165" y="519" width="109" height="30" opacity="1" fill="#6666FF" stroke="none"/>
<rect x="278" y="549" width="109" height="0" opacity="1" fill="#6666FF" stroke="none"/>
<rect x="52" y="493" width="109" height="23" opacity="1" fill="#66FFB2" stroke="none"/>
<rect x="165" y="255" width="109" height="264" opacity="1" fill="#66FFB2" stroke="none"/>
<rect x="278" y="549" width="109" height="0" opacity="1" fill="#66FFB2" stroke="none"/>
<rect x="52" y="493" width="109" height="0" opacity="1" fill="#FF66B2" stroke="none"/>
<rect x="165" y="254" width="109" height="1" opacity="1" fill="#FF66B2" stroke="none"/>
<rect x="278" y="549" width="109" height="0" opacity="1" fill="#FF66B2" stroke="none"/>
<rect x="52" y="492" width="109" height="1" opacity="1" fill="#FF66B2" stroke="none"/>
<rect x="165" y="253" width="109" height="1" opacity="1" fill="#FF66B2" stroke="none"/>
<rect x="278" y="549" width="109" height="0" opacity="1" fill="#FF66B2" stroke="none"/>
<rect x="52" y="490" width="109" height="2" opacity="1" fill="#FFFF66" stroke="none"/>
<rect x="165" y="98" width="109" height="155" opacity="1" fill="#FFFF66" stroke="none"/>
<rect x="278" y="549" width="109" height="0" opacity="1" fill="#FFFF66" stroke="none"/>
<rect x="52" y="486" width="109" height="4" opacity="1" fill="#FFFF66" stroke="none"/>
<rect x="165" y="40" width="109" height="58" opacity="1" fill="#FFFF66" stroke="none"/>
<rect x="278" y="549" width="109" height="0" opacity="1" fill="#FFFF66" stroke="none"/>
<polyline fill="none" opacity="1" stroke="#000000" stroke-width="1" points="50,40 389,40 "/>
<polyline fill="none" opacity="1" stroke="#000000" stroke-width="1" points="389,549 389,40 "/>
<polyline fill="none" opacity="1" stroke="#000000" stroke-width="1" points="50,549 389,549 "/>
<text x="85" y="560" dy="0.76em" text-anchor="start" font-family="sans-serif" font-size="16.129032258064516" opacity="1" fill="#000000">
kata
</text>
<text x="205" y="560" dy="0.76em" text-anchor="start" font-family="sans-serif" font-size="16.129032258064516" opacity="1" fill="#000000">
snp
</text>
<text x="325" y="560" dy="0.76em" text-anchor="start" font-family="sans-serif" font-size="16.129032258064516" opacity="1" fill="#000000">
tdx
</text>
<rect x="70" y="6" width="20" height="20" opacity="1" fill="#66FFB2" stroke="none"/>
<text x="100" y="11" dy="0.76em" text-anchor="start" font-family="sans-serif" font-size="16.129032258064516" opacity="1" fill="#000000">
create-vm
</text>
<rect x="220" y="6" width="20" height="20" opacity="1" fill="#FFFF66" stroke="none"/>
<text x="250" y="11" dy="0.76em" text-anchor="start" font-family="sans-serif" font-size="16.129032258064516" opacity="1" fill="#000000">
pull-image
</text>
</svg>
