<svg width="600" height="400" viewBox="0 0 600 400" xmlns="http://www.w3.org/2000/svg">
<rect x="0" y="0" width="600" height="400" opacity="1" fill="#FFFFFF" stroke="none"/>
<line opacity="0.1" stroke="#000000" stroke-width="1" x1="50" y1="349" x2="589" y2="349"/>
<line opacity="0.1" stroke="#000000" stroke-width="1" x1="50" y1="342" x2="589" y2="342"/>
<line opacity="0.1" stroke="#000000" stroke-width="1" x1="50" y1="334" x2="589" y2="334"/>
<line opacity="0.1" stroke="#000000" stroke-width="1" x1="50" y1="327" x2="589" y2="327"/>
<line opacity="0.1" stroke="#000000" stroke-width="1" x1="50" y1="319" x2="589" y2="319"/>
<line opacity="0.1" stroke="#000000" stroke-width="1" x1="50" y1="312" x2="589" y2="312"/>
<line opacity="0.1" stroke="#000000" stroke-width="1" x1="50" y1="304" x2="589" y2="304"/>
<line opacity="0.1" stroke="#000000" stroke-width="1" x1="50" y1="297" x2="589" y2="297"/>
<line opacity="0.1" stroke="#000000" stroke-width="1" x1="50" y1="289" x2="589" y2="289"/>
<line opacity="0.1" stroke="#000000" stroke-width="1" x1="50" y1="282" x2="589" y2="282"/>
<line opacity="0.1" stroke="#000000" stroke-width="1" x1="50" y1="274" x2="589" y2="274"/>
<line opacity="0.1" stroke="#000000" stroke-width="1" x1="50" y1="267" x2="589" y2="267"/>
<line opacity="0.1" stroke="#000000" stroke-width="1" x1="50" y1="259" x2="589" y2="259"/>
<line opacity="0.1" stroke="#000000" stroke-width="1" x1="50" y1="252" x2="589" y2="252"/>
<line opacity="0.1" stroke="#000000" stroke-width="1" x1="50" y1="244" x2="589" y2="244"/>
<line opacity="0.1" stroke="#000000" stroke-width="1" x1="50" y1="237" x2="589" y2="237"/>
<line opacity="0.1" stroke="#000000" stroke-width="1" x1="50" y1="229" x2="589" y2="229"/>
<line opacity="0.1" stroke="#000000" stroke-width="1" x1="50" y1="222" x2="589" y2="222"/>
<line opacity="0.1" stroke="#000000" stroke-width="1" x1="50" y1="214" x2="589" y2="214"/>
<line opacity="0.1" stroke="#000000" stroke-width="1" x1="50" y1="207" x2="589" y2="207"/>
<line opacity="0.1" stroke="#000000" stroke-width="1" x1="50" y1="199" x2="589" y2="199"/>
<line opacity="0.1" stroke="#000000" stroke-width="1" x1="50" y1="192" x2="589" y2="192"/>
<line opacity="0.1" stroke="#000000" stroke-width="1" x1="50" y1="184" x2="589" y2="184"/>
<line opacity="0.1" stroke="#000000" stroke-width="1" x1="50" y1="177" x2="589" y2="177"/>
<line opacity="0.1" stroke="#000000" stroke-width="1" x1="50" y1="169" x2="589" y2="169"/>
<line opacity="0.1" stroke="#000000" stroke-width="1" x1="50" y1="162" x2="589" y2="162"/>
<line opacity="0.1" stroke="#000000" stroke-width="1" x1="50" y1="154" x2="589" y2="154"/>
<line opacity="0.1" stroke="#000000" stroke-width="1" x1="50" y1="147" x2="589" y2="147"/>
<line opacity="0.1" stroke="#000000" stroke-width="1" x1="50" y1="139" x2="589" y2="139"/>
<line opacity="0.1" stroke="#000000" stroke-width="1" x1="50" y1="132" x2="589" y2="132"/>
<line opacity="0.1" stroke="#000000" stroke-width="1" x1="50" y1="124" x2="589" y2="124"/>
<line opacity="0.1" stroke="#000000" stroke-width="1" x1="50" y1="117" x2="589" y2="117"/>
<line opacity="0.1" stroke="#000000" stroke-width="1" x1="50" y1="109" x2="589" y2="109"/>
<line opacity="0.1" stroke="#000000" stroke-width="1" x1="50" y1="102" x2="589" y2="102"/>
<line opacity="0.1" stroke="#000000" stroke-width="1" x1="50" y1="94" x2="589" y2="94"/>
<line opacity="0.1" stroke="#000000" stroke-width="1" x1="50" y1="87" x2="589" y2="87"/>
<line opacity="0.1" stroke="#000000" stroke-width="1" x1="50" y1="79" x2="589" y2="79"/>
<line opacity="0.1" stroke="#000000" stroke-width="1" x1="50" y1="72" x2="589" y2="72"/>
<line opacity="0.1" stroke="#000000" stroke-width="1" x1="50" y1="64" x2="589" y2="64"/>
<line opacity="0.1" stroke="#000000" stroke-width="1" x1="50" y1="57" x2="589" y2="57"/>
<line opacity="0.1" stroke="#000000" stroke-width="1" x1="50" y1="49" x2="589" y2="49"/>
<line opacity="0.1" stroke="#000000" stroke-width="1" x1="50" y1="42" x2="589" y2="42"/>
<line opacity="0.2" stroke="#000000" stroke-width="1" x1="50" y1="349" x2="589" y2="349"/>
<line opacity="0.2" stroke="#000000" stroke-width="1" x1="50" y1="274" x2="589" y2="274"/>
<line opacity="0.2" stroke="#000000" stroke-width="1" x1="50" y1="199" x2="589" y2="199"/>
<line opacity="0.2" stroke="#000000" stroke-width="1" x1="50" y1="124" x2="589" y2="124"/>
<line opacity="0.2" stroke="#000000" stroke-width="1" x1="50" y1="49" x2="589" y2="49"/>
<polyline fill="none" opacity="1" stroke="#000000" stroke-width="1" points="49,40 49,349 "/>
<text x="40" y="349" dy="0.5ex" text-anchor="end" font-family="sans-serif" font-size="16.129032258064516" opacity="1" fill="#000000">
0
</text>
<polyline fill="none" opacity="1" stroke="#000000" stroke-width="1" points="44,349 49,349 "/>
<text x="40" y="274" dy="0.5ex" text-anchor="end" font-family="sans-serif" font-size="16.129032258064516" opacity="1" fill="#000000">
5
</text>
<polyline fill="none" opacity="1" stroke="#000000" stroke-width="1" points="44,274 49,274 "/>
<text x="40" y="199" dy="0.5ex" text-anchor="end" font-family="sans-serif" font-size="16.129032258064516" opacity="1" fill="#000000">
10
</text>
<polyline fill="none" opacity="1" stroke="#000000" stroke-width="1" points="44,199 49,199 "/>
<text x="40" y="124" dy="0.5ex" text-anchor="end" font-family="sans-serif" font-size="16.129032258064516" opacity="1" fill="#000000">
15
</text>
<polyline fill="none" opacity="1" stroke="#000000" stroke-width="1" points="44,124 49,124 "/>
<text x="40" y="49" dy="0.5ex" text-anchor="end" font-family="sans-serif" font-size="16.129032258064516" opacity="1" fill="#000000">
20
</text>
<polyline fill="none" opacity="1" stroke="#000000" stroke-width="1" points="44,49 49,49 "/>
<text x="3" y="280" dy="0.76em" text-anchor="start" font-family="sans-serif" font-size="16.129032258064516" opacity="1" fill="#000000" transform="rotate(270, 3, 280)">
Cold Start Latency [s]
</text>
<rect x="52" y="334" width="103" height="15" opacity="1" fill="#6666FF" stroke="none"/>
<rect x="159" y="330" width="104" height="19" opacity="1" fill="#6666FF" stroke="none"/>
<rect x="267" y="336" width="104" height="13" opacity="1" fill="#6666FF" stroke="none"/>
<rect x="375" y="330" width="104" height="19" opacity="1" fill="#6666FF" stroke="none"/>
<rect x="483" y="336" width="104" height="13" opacity="1" fill="#6666FF" stroke="none"/>
<rect x="52" y="324" width="103" height="10" opacity="1" fill="#66FFB2" stroke="none"/>
<rect x="159" y="209" width="104" height="121" opacity="1" fill="#66FFB2" stroke="none"/>
<rect x="267" y="332" width="104" height="4" opacity="1" fill="#66FFB2" stroke="none"/>
<rect x="375" y="205" width="104" height="125" opacity="1" fill="#66FFB2" stroke="none"/>
<rect x="483" y="307" width="104" height="29" opacity="1" fill="#66FFB2" stroke="none"/>
<rect x="52" y="324" width="103" height="0" opacity="1" fill="#FF66B2" stroke="none"/>
<rect x="159" y="209" width="104" height="0" opacity="1" fill="#FF66B2" stroke="none"/>
<rect x="267" y="332" width="104" height="0" opacity="1" fill="#FF66B2" stroke="none"/>
<rect x="375" y="204" width="104" height="1" opacity="1" fill="#FF66B2" stroke="none"/>
<rect x="483" y="306" width="104" height="1" opacity="1" fill="#FF66B2" stroke="none"/>
<rect x="52" y="323" width="103" height="1" opacity="1" fill="#FF66B2" stroke="none"/>
<rect x="159" y="208" width="104" height="1" opacity="1" fill="#FF66B2" stroke="none"/>
<rect x="267" y="332" width="104" height="0" opacity="1" fill="#FF66B2" stroke="none"/>
<rect x="375" y="204" width="104" height="0" opacity="1" fill="#FF66B2" stroke="none"/>
<rect x="483" y="306" width="104" height="0" opacity="1" fill="#FF66B2" stroke="none"/>
<rect x="52" y="322" width="103" height="1" opacity="1" fill="#FFFF66" stroke="none"/>
<rect x="159" y="145" width="104" height="63" opacity="1" fill="#FFFF66" stroke="none"/>
<rect x="267" y="268" width="104" height="64" opacity="1" fill="#FFFF66" stroke="none"/>
<rect x="375" y="74" width="104" height="130" opacity="1" fill="#FFFF66" stroke="none"/>
<rect x="483" y="176" width="104" height="130" opacity="1" fill="#FFFF66" stroke="none"/>
<rect x="52" y="320" width="103" height="2" opacity="1" fill="#FFFF66" stroke="none"/>
<rect x="159" y="125" width="104" height="20" opacity="1" fill="#FFFF66" stroke="none"/>
<rect x="267" y="248" width="104" height="20" opacity="1" fill="#FFFF66" stroke="none"/>
<rect x="375" y="40" width="104" height="34" opacity="1" fill="#FFFF66" stroke="none"/>
<rect x="483" y="141" width="104" height="35" opacity="1" fill="#FFFF66" stroke="none"/>
<polyline fill="none" opacity="1" stroke="#000000" stroke-width="1" points="52,320 155,320 155,349 52,349 52,320 "/>
<polyline fill="none" opacity="1" stroke="#000000" stroke-width="1" points="160,125 262,125 262,349 160,349 160,125 "/>
<polyline fill="none" opacity="1" stroke="#000000" stroke-width="1" points="268,248 370,248 370,349 268,349 268,248 "/>
<polyline fill="none" opacity="1" stroke="#000000" stroke-width="1" points="376,40 478,40 478,349 376,349 376,40 "/>
<polyline fill="none" opacity="1" stroke="#000000" stroke-width="1" points="483,141 586,141 586,349 483,349 483,141 "/>
<polyline fill="none" opacity="1" stroke="#000000" stroke-width="1" points="50,40 589,40 "/>
<polyline fill="none" opacity="1" stroke="#000000" stroke-width="1" points="589,349 589,40 "/>
<polyline fill="none" opacity="1" stroke="#000000" stroke-width="1" points="50,349 589,349 "/>
<text x="100" y="360" dy="0.76em" text-anchor="start" font-family="sans-serif" font-size="16.129032258064516" opacity="1" fill="#000000">
kata
</text>
<text x="200" y="360" dy="0.76em" text-anchor="start" font-family="sans-serif" font-size="16.129032258064516" opacity="1" fill="#000000">
snp
</text>
<text x="300" y="360" dy="0.76em" text-anchor="start" font-family="sans-serif" font-size="16.129032258064516" opacity="1" fill="#000000">
snp-sc2
</text>
<text x="400" y="360" dy="0.76em" text-anchor="start" font-family="sans-serif" font-size="16.129032258064516" opacity="1" fill="#000000">
tdx
</text>
<text x="500" y="360" dy="0.76em" text-anchor="start" font-family="sans-serif" font-size="16.129032258064516" opacity="1" fill="#000000">
tdx-sc2
</text>
<rect x="170" y="6" width="20" height="20" opacity="1" fill="#66FFB2" stroke="none"/>
<text x="200" y="11" dy="0.76em" text-anchor="start" font-family="sans-serif" font-size="16.129032258064516" opacity="1" fill="#000000">
create-vm
</text>
<rect x="320" y="6" width="20" height="20" opacity="1" fill="#FFFF66" stroke="none"/>
<text x="350" y="11" dy="0.76em" text-anchor="start" font-family="sans-serif" font-size="16.129032258064516" opacity="1" fill="#000000">
pull-image
</text>
</svg>
