<svg width="600" height="400" viewBox="0 0 600 400" xmlns="http://www.w3.org/2000/svg">
<rect x="0" y="0" width="600" height="400" opacity="1" fill="#FFFFFF" stroke="none"/>
<line opacity="0.1" stroke="#000000" stroke-width="1" x1="50" y1="349" x2="589" y2="349"/>
<line opacity="0.1" stroke="#000000" stroke-width="1" x1="50" y1="337" x2="589" y2="337"/>
<line opacity="0.1" stroke="#000000" stroke-width="1" x1="50" y1="325" x2="589" y2="325"/>
<line opacity="0.1" stroke="#000000" stroke-width="1" x1="50" y1="312" x2="589" y2="312"/>
<line opacity="0.1" stroke="#000000" stroke-width="1" x1="50" y1="300" x2="589" y2="300"/>
<line opacity="0.1" stroke="#000000" stroke-width="1" x1="50" y1="288" x2="589" y2="288"/>
<line opacity="0.1" stroke="#000000" stroke-width="1" x1="50" y1="275" x2="589" y2="275"/>
<line opacity="0.1" stroke="#000000" stroke-width="1" x1="50" y1="263" x2="589" y2="263"/>
<line opacity="0.1" stroke="#000000" stroke-width="1" x1="50" y1="251" x2="589" y2="251"/>
<line opacity="0.1" stroke="#000000" stroke-width="1" x1="50" y1="238" x2="589" y2="238"/>
<line opacity="0.1" stroke="#000000" stroke-width="1" x1="50" y1="226" x2="589" y2="226"/>
<line opacity="0.1" stroke="#000000" stroke-width="1" x1="50" y1="214" x2="589" y2="214"/>
<line opacity="0.1" stroke="#000000" stroke-width="1" x1="50" y1="201" x2="589" y2="201"/>
<line opacity="0.1" stroke="#000000" stroke-width="1" x1="50" y1="189" x2="589" y2="189"/>
<line opacity="0.1" stroke="#000000" stroke-width="1" x1="50" y1="176" x2="589" y2="176"/>
<line opacity="0.1" stroke="#000000" stroke-width="1" x1="50" y1="164" x2="589" y2="164"/>
<line opacity="0.1" stroke="#000000" stroke-width="1" x1="50" y1="152" x2="589" y2="152"/>
<line opacity="0.1" stroke="#000000" stroke-width="1" x1="50" y1="139" x2="589" y2="139"/>
<line opacity="0.1" stroke="#000000" stroke-width="1" x1="50" y1="127" x2="589" y2="127"/>
<line opacity="0.1" stroke="#000000" stroke-width="1" x1="50" y1="115" x2="589" y2="115"/>
<line opacity="0.1" stroke="#000000" stroke-width="1" x1="50" y1="102" x2="589" y2="102"/>
<line opacity="0.1" stroke="#000000" stroke-width="1" x1="50" y1="90" x2="589" y2="90"/>
<line opacity="0.1" stroke="#000000" stroke-width="1" x1="50" y1="78" x2="589" y2="78"/>
<line opacity="0.1" stroke="#000000" stroke-width="1" x1="50" y1="65" x2="589" y2="65"/>
<line opacity="0.1" stroke="#000000" stroke-width="1" x1="50" y1="53" x2="589" y2="53"/>
<line opacity="0.1" stroke="#000000" stroke-width="1" x1="50" y1="40" x2="589" y2="40"/>
<line opacity="0.2" stroke="#000000" stroke-width="1" x1="50" y1="349" x2="589" y2="349"/>
<line opacity="0.2" stroke="#000000" stroke-width="1" x1="50" y1="288" x2="589" y2="288"/>
<line opacity="0.2" stroke="#000000" stroke-width="1" x1="50" y1="226" x2="589" y2="226"/>
<line opacity="0.2" stroke="#000000" stroke-width="1" x1="50" y1="164" x2="589" y2="164"/>
<line opacity="0.2" stroke="#000000" stroke-width="1" x1="50" y1="102" x2="589" y2="102"/>
<line opacity="0.2" stroke="#000000" stroke-width="1" x1="50" y1="40" x2="589" y2="40"/>
<polyline fill="none" opacity="1" stroke="#000000" stroke-width="1" points="49,40 49,349 "/>
<text x="40" y="349" dy="0.5ex" text-anchor="end" font-family="sans-serif" font-size="16.129032258064516" opacity="1" fill="#000000">
0
</text>
<polyline fill="none" opacity="1" stroke="#000000" stroke-width="1" points="44,349 49,349 "/>
<text x="40" y="288" dy="0.5ex" text-anchor="end" font-family="sans-serif" font-size="16.129032258064516" opacity="1" fill="#000000">
5
</text>
<polyline fill="none" opacity="1" stroke="#000000" stroke-width="1" points="44,288 49,288 "/>
<text x="40" y="226" dy="0.5ex" text-anchor="end" font-family="sans-serif" font-size="16.129032258064516" opacity="1" fill="#000000">
10
</text>
<polyline fill="none" opacity="1" stroke="#000000" stroke-width="1" points="44,226 49,226 "/>
<text x="40" y="164" dy="0.5ex" text-anchor="end" font-family="sans-serif" font-size="16.129032258064516" opacity="1" fill="#000000">
15
</text>
<polyline fill="none" opacity="1" stroke="#000000" stroke-width="1" points="44,164 49,164 "/>
<text x="40" y="102" dy="0.5ex" text-anchor="end" font-family="sans-serif" font-size="16.129032258064516" opacity="1" fill="#000000">
20
</text>
<polyline fill="none" opacity="1" stroke="#000000" stroke-width="1" points="44,102 49,102 "/>
<text x="40" y="40" dy="0.5ex" text-anchor="end" font-family="sans-serif" font-size="16.129032258064516" opacity="1" fill="#000000">
25
</text>
<polyline fill="none" opacity="1" stroke="#000000" stroke-width="1" points="44,40 49,40 "/>
<text x="3" y="280" dy="0.76em" text-anchor="start" font-family="sans-serif" font-size="16.129032258064516" opacity="1" fill="#000000" transform="rotate(270, 3, 280)">
Cold Start Latency [s]
</text>
<rect x="52" y="343" width="85" height="6" opacity="1" fill="#6666FF" stroke="none"/>
<rect x="141" y="337" width="86" height="12" opacity="1" fill="#6666FF" stroke="none"/>
<rect x="231" y="333" width="86" height="16" opacity="1" fill="#6666FF" stroke="none"/>
<rect x="321" y="338" width="86" height="11" opacity="1" fill="#6666FF" stroke="none"/>
<rect x="411" y="334" width="86" height="15" opacity="1" fill="#6666FF" stroke="none"/>
<rect x="501" y="339" width="86" height="10" opacity="1" fill="#6666FF" stroke="none"/>
<rect x="52" y="340" width="85" height="3" opacity="1" fill="#66FFB2" stroke="none"/>
<rect x="141" y="328" width="86" height="9" opacity="1" fill="#66FFB2" stroke="none"/>
<rect x="231" y="234" width="86" height="99" opacity="1" fill="#66FFB2" stroke="none"/>
<rect x="321" y="335" width="86" height="3" opacity="1" fill="#66FFB2" stroke="none"/>
<rect x="411" y="231" width="86" height="103" opacity="1" fill="#66FFB2" stroke="none"/>
<rect x="501" y="315" width="86" height="24" opacity="1" fill="#66FFB2" stroke="none"/>
<rect x="52" y="340" width="85" height="0" opacity="1" fill="#FF66B2" stroke="none"/>
<rect x="141" y="328" width="86" height="0" opacity="1" fill="#FF66B2" stroke="none"/>
<rect x="231" y="234" width="86" height="0" opacity="1" fill="#FF66B2" stroke="none"/>
<rect x="321" y="335" width="86" height="0" opacity="1" fill="#FF66B2" stroke="none"/>
<rect x="411" y="230" width="86" height="1" opacity="1" fill="#FF66B2" stroke="none"/>
<rect x="501" y="314" width="86" height="1" opacity="1" fill="#FF66B2" stroke="none"/>
<rect x="52" y="340" width="85" height="0" opacity="1" fill="#FF66B2" stroke="none"/>
<rect x="141" y="328" width="86" height="0" opacity="1" fill="#FF66B2" stroke="none"/>
<rect x="231" y="233" width="86" height="1" opacity="1" fill="#FF66B2" stroke="none"/>
<rect x="321" y="335" width="86" height="0" opacity="1" fill="#FF66B2" stroke="none"/>
<rect x="411" y="229" width="86" height="1" opacity="1" fill="#FF66B2" stroke="none"/>
<rect x="501" y="313" width="86" height="1" opacity="1" fill="#FF66B2" stroke="none"/>
<rect x="52" y="339" width="85" height="1" opacity="1" fill="#FFFF66" stroke="none"/>
<rect x="141" y="327" width="86" height="1" opacity="1" fill="#FFFF66" stroke="none"/>
<rect x="231" y="181" width="86" height="52" opacity="1" fill="#FFFF66" stroke="none"/>
<rect x="321" y="282" width="86" height="53" opacity="1" fill="#FFFF66" stroke="none"/>
<rect x="411" y="123" width="86" height="106" opacity="1" fill="#FFFF66" stroke="none"/>
<rect x="501" y="207" width="86" height="106" opacity="1" fill="#FFFF66" stroke="none"/>
<rect x="52" y="338" width="85" height="1" opacity="1" fill="#FFFF66" stroke="none"/>
<rect x="141" y="325" width="86" height="2" opacity="1" fill="#FFFF66" stroke="none"/>
<rect x="231" y="165" width="86" height="16" opacity="1" fill="#FFFF66" stroke="none"/>
<rect x="321" y="266" width="86" height="16" opacity="1" fill="#FFFF66" stroke="none"/>
<rect x="411" y="95" width="86" height="28" opacity="1" fill="#FFFF66" stroke="none"/>
<rect x="501" y="178" width="86" height="29" opacity="1" fill="#FFFF66" stroke="none"/>
<polyline fill="none" opacity="1" stroke="#000000" stroke-width="1" points="52,338 137,338 137,349 52,349 52,338 "/>
<polyline fill="none" opacity="1" stroke="#000000" stroke-width="1" points="142,325 226,325 226,349 142,349 142,325 "/>
<polyline fill="none" opacity="1" stroke="#000000" stroke-width="1" points="232,165 316,165 316,349 232,349 232,165 "/>
<polyline fill="none" opacity="1" stroke="#000000" stroke-width="1" points="322,266 406,266 406,349 322,349 322,266 "/>
<polyline fill="none" opacity="1" stroke="#000000" stroke-width="1" points="412,95 496,95 496,349 412,349 412,95 "/>
<polyline fill="none" opacity="1" stroke="#000000" stroke-width="1" points="501,178 586,178 586,349 501,349 501,178 "/>
<polyline fill="none" opacity="1" stroke="#000000" stroke-width="1" points="50,40 589,40 "/>
<polyline fill="none" opacity="1" stroke="#000000" stroke-width="1" points="589,349 589,40 "/>
<polyline fill="none" opacity="1" stroke="#000000" stroke-width="1" points="50,349 589,349 "/>
<text x="80" y="360" dy="0.76em" text-anchor="start" font-family="sans-serif" font-size="16.129032258064516" opacity="1" fill="#000000">
runc
</text>
<text x="180" y="360" dy="0.76em" text-anchor="start" font-family="sans-serif" font-size="16.129032258064516" opacity="1" fill="#000000">
kata
</text>
<text x="260" y="360" dy="0.76em" text-anchor="start" font-family="sans-serif" font-size="16.129032258064516" opacity="1" fill="#000000">
snp
</text>
<text x="340" y="360" dy="0.76em" text-anchor="start" font-family="sans-serif" font-size="16.129032258064516" opacity="1" fill="#000000">
snp-sc2
</text>
<text x="445" y="360" dy="0.76em" text-anchor="start" font-family="sans-serif" font-size="16.129032258064516" opacity="1" fill="#000000">
tdx
</text>
<text x="520" y="360" dy="0.76em" text-anchor="start" font-family="sans-serif" font-size="16.129032258064516" opacity="1" fill="#000000">
tdx-sc2
</text>
<rect x="110" y="6" width="20" height="20" opacity="1" fill="#6666FF" stroke="none"/>
<text x="140" y="11" dy="0.76em" text-anchor="start" font-family="sans-serif" font-size="16.129032258064516" opacity="1" fill="#000000">
control-plane
</text>
<rect x="260" y="6" width="20" height="20" opacity="1" fill="#66FFB2" stroke="none"/>
<text x="290" y="11" dy="0.76em" text-anchor="start" font-family="sans-serif" font-size="16.129032258064516" opacity="1" fill="#000000">
create-vm
</text>
<rect x="390" y="6" width="20" height="20" opacity="1" fill="#FFFF66" stroke="none"/>
<text x="420" y="11" dy="0.76em" text-anchor="start" font-family="sans-serif" font-size="16.129032258064516" opacity="1" fill="#000000">
pull-image
</text>
</svg>
