<svg width="600" height="400" viewBox="0 0 600 400" xmlns="http://www.w3.org/2000/svg">
<rect x="0" y="0" width="600" height="400" opacity="1" fill="#FFFFFF" stroke="none"/>
<line opacity="0.1" stroke="#000000" stroke-width="1" x1="50" y1="349" x2="589" y2="349"/>
<line opacity="0.1" stroke="#000000" stroke-width="1" x1="50" y1="339" x2="589" y2="339"/>
<line opacity="0.1" stroke="#000000" stroke-width="1" x1="50" y1="329" x2="589" y2="329"/>
<line opacity="0.1" stroke="#000000" stroke-width="1" x1="50" y1="319" x2="589" y2="319"/>
<line opacity="0.1" stroke="#000000" stroke-width="1" x1="50" y1="309" x2="589" y2="309"/>
<line opacity="0.1" stroke="#000000" stroke-width="1" x1="50" y1="299" x2="589" y2="299"/>
<line opacity="0.1" stroke="#000000" stroke-width="1" x1="50" y1="289" x2="589" y2="289"/>
<line opacity="0.1" stroke="#000000" stroke-width="1" x1="50" y1="279" x2="589" y2="279"/>
<line opacity="0.1" stroke="#000000" stroke-width="1" x1="50" y1="269" x2="589" y2="269"/>
<line opacity="0.1" stroke="#000000" stroke-width="1" x1="50" y1="259" x2="589" y2="259"/>
<line opacity="0.1" stroke="#000000" stroke-width="1" x1="50" y1="249" x2="589" y2="249"/>
<line opacity="0.1" stroke="#000000" stroke-width="1" x1="50" y1="239" x2="589" y2="239"/>
<line opacity="0.1" stroke="#000000" stroke-width="1" x1="50" y1="229" x2="589" y2="229"/>
<line opacity="0.1" stroke="#000000" stroke-width="1" x1="50" y1="219" x2="589" y2="219"/>
<line opacity="0.1" stroke="#000000" stroke-width="1" x1="50" y1="209" x2="589" y2="209"/>
<line opacity="0.1" stroke="#000000" stroke-width="1" x1="50" y1="199" x2="589" y2="199"/>
<line opacity="0.1" stroke="#000000" stroke-width="1" x1="50" y1="189" x2="589" y2="189"/>
<line opacity="0.1" stroke="#000000" stroke-width="1" x1="50" y1="179" x2="589" y2="179"/>
<line opacity="0.1" stroke="#000000" stroke-width="1" x1="50" y1="169" x2="589" y2="169"/>
<line opacity="0.1" stroke="#000000" stroke-width="1" x1="50" y1="159" x2="589" y2="159"/>
<line opacity="0.1" stroke="#000000" stroke-width="1" x1="50" y1="149" x2="589" y2="149"/>
<line opacity="0.1" stroke="#000000" stroke-width="1" x1="50" y1="139" x2="589" y2="139"/>
<line opacity="0.1" stroke="#000000" stroke-width="1" x1="50" y1="129" x2="589" y2="129"/>
<line opacity="0.1" stroke="#000000" stroke-width="1" x1="50" y1="119" x2="589" y2="119"/>
<line opacity="0.1" stroke="#000000" stroke-width="1" x1="50" y1="109" x2="589" y2="109"/>
<line opacity="0.1" stroke="#000000" stroke-width="1" x1="50" y1="99" x2="589" y2="99"/>
<line opacity="0.1" stroke="#000000" stroke-width="1" x1="50" y1="89" x2="589" y2="89"/>
<line opacity="0.1" stroke="#000000" stroke-width="1" x1="50" y1="79" x2="589" y2="79"/>
<line opacity="0.1" stroke="#000000" stroke-width="1" x1="50" y1="69" x2="589" y2="69"/>
<line opacity="0.1" stroke="#000000" stroke-width="1" x1="50" y1="59" x2="589" y2="59"/>
<line opacity="0.1" stroke="#000000" stroke-width="1" x1="50" y1="49" x2="589" y2="49"/>
<line opacity="0.2" stroke="#000000" stroke-width="1" x1="50" y1="349" x2="589" y2="349"/>
<line opacity="0.2" stroke="#000000" stroke-width="1" x1="50" y1="299" x2="589" y2="299"/>
<line opacity="0.2" stroke="#000000" stroke-width="1" x1="50" y1="249" x2="589" y2="249"/>
<line opacity="0.2" stroke="#000000" stroke-width="1" x1="50" y1="199" x2="589" y2="199"/>
<line opacity="0.2" stroke="#000000" stroke-width="1" x1="50" y1="149" x2="589" y2="149"/>
<line opacity="0.2" stroke="#000000" stroke-width="1" x1="50" y1="99" x2="589" y2="99"/>
<line opacity="0.2" stroke="#000000" stroke-width="1" x1="50" y1="49" x2="589" y2="49"/>
<polyline fill="none" opacity="1" stroke="#000000" stroke-width="1" points="49,40 49,349 "/>
<text x="40" y="349" dy="0.5ex" text-anchor="end" font-family="sans-serif" font-size="16.129032258064516" opacity="1" fill="#000000">
0
</text>
<polyline fill="none" opacity="1" stroke="#000000" stroke-width="1" points="44,349 49,349 "/>
<text x="40" y="299" dy="0.5ex" text-anchor="end" font-family="sans-serif" font-size="16.129032258064516" opacity="1" fill="#000000">
5
</text>
<polyline fill="none" opacity="1" stroke="#000000" stroke-width="1" points="44,299 49,299 "/>
<text x="40" y="249" dy="0.5ex" text-anchor="end" font-family="sans-serif" font-size="16.129032258064516" opacity="1" fill="#000000">
10
</text>
<polyline fill="none" opacity="1" stroke="#000000" stroke-width="1" points="44,249 49,249 "/>
<text x="40" y="199" dy="0.5ex" text-anchor="end" font-family="sans-serif" font-size="16.129032258064516" opacity="1" fill="#000000">
15
</text>
<polyline fill="none" opacity="1" stroke="#000000" stroke-width="1" points="44,199 49,199 "/>
<text x="40" y="149" dy="0.5ex" text-anchor="end" font-family="sans-serif" font-size="16.129032258064516" opacity="1" fill="#000000">
20
</text>
<polyline fill="none" opacity="1" stroke="#000000" stroke-width="1" points="44,149 49,149 "/>
<text x="40" y="99" dy="0.5ex" text-anchor="end" font-family="sans-serif" font-size="16.129032258064516" opacity="1" fill="#000000">
25
</text>
<polyline fill="none" opacity="1" stroke="#000000" stroke-width="1" points="44,99 49,99 "/>
<text x="40" y="49" dy="0.5ex" text-anchor="end" font-family="sans-serif" font-size="16.129032258064516" opacity="1" fill="#000000">
30
</text>
<polyline fill="none" opacity="1" stroke="#000000" stroke-width="1" points="44,49 49,49 "/>
<text x="3" y="280" dy="0.76em" text-anchor="start" font-family="sans-serif" font-size="16.129032258064516" opacity="1" fill="#000000" transform="rotate(270, 3, 280)">
Start-Up Latency [s]
</text>
<rect x="52" y="341" width="42" height="8" opacity="1" fill="#6666FF" stroke="none"/>
<rect x="141" y="338" width="43" height="11" opacity="1" fill="#6666FF" stroke="none"/>
<rect x="231" y="341" width="43" height="8" opacity="1" fill="#6666FF" stroke="none"/>
<rect x="321" y="342" width="43" height="7" opacity="1" fill="#6666FF" stroke="none"/>
<rect x="411" y="349" width="43" height="1" opacity="1" fill="#6666FF" stroke="none"/>
<rect x="501" y="349" width="43" height="1" opacity="1" fill="#6666FF" stroke="none"/>
<rect x="52" y="339" width="42" height="2" opacity="1" fill="#66FFB2" stroke="none"/>
<rect x="141" y="330" width="43" height="8" opacity="1" fill="#66FFB2" stroke="none"/>
<rect x="231" y="258" width="43" height="83" opacity="1" fill="#66FFB2" stroke="none"/>
<rect x="321" y="339" width="43" height="3" opacity="1" fill="#66FFB2" stroke="none"/>
<rect x="411" y="277" width="43" height="73" opacity="1" fill="#66FFB2" stroke="none"/>
<rect x="501" y="345" width="43" height="5" opacity="1" fill="#66FFB2" stroke="none"/>
<rect x="52" y="315" width="42" height="24" opacity="1" fill="#F5A142" stroke="none"/>
<rect x="141" y="307" width="43" height="23" opacity="1" fill="#F5A142" stroke="none"/>
<rect x="231" y="257" width="43" height="1" opacity="1" fill="#F5A142" stroke="none"/>
<rect x="321" y="338" width="43" height="1" opacity="1" fill="#F5A142" stroke="none"/>
<rect x="411" y="253" width="43" height="24" opacity="1" fill="#F5A142" stroke="none"/>
<rect x="501" y="321" width="43" height="24" opacity="1" fill="#F5A142" stroke="none"/>
<rect x="52" y="315" width="42" height="0" opacity="1" fill="#FF66B2" stroke="none"/>
<rect x="141" y="307" width="43" height="0" opacity="1" fill="#FF66B2" stroke="none"/>
<rect x="231" y="257" width="43" height="0" opacity="1" fill="#FF66B2" stroke="none"/>
<rect x="321" y="338" width="43" height="0" opacity="1" fill="#FF66B2" stroke="none"/>
<rect x="411" y="253" width="43" height="0" opacity="1" fill="#FF66B2" stroke="none"/>
<rect x="501" y="321" width="43" height="0" opacity="1" fill="#FF66B2" stroke="none"/>
<rect x="52" y="315" width="42" height="0" opacity="1" fill="#FF66B2" stroke="none"/>
<rect x="141" y="307" width="43" height="0" opacity="1" fill="#FF66B2" stroke="none"/>
<rect x="231" y="257" width="43" height="0" opacity="1" fill="#FF66B2" stroke="none"/>
<rect x="321" y="338" width="43" height="0" opacity="1" fill="#FF66B2" stroke="none"/>
<rect x="411" y="252" width="43" height="1" opacity="1" fill="#FF66B2" stroke="none"/>
<rect x="501" y="320" width="43" height="1" opacity="1" fill="#FF66B2" stroke="none"/>
<rect x="52" y="314" width="42" height="1" opacity="1" fill="#FFFF66" stroke="none"/>
<rect x="141" y="306" width="43" height="1" opacity="1" fill="#FFFF66" stroke="none"/>
<rect x="231" y="214" width="43" height="43" opacity="1" fill="#FFFF66" stroke="none"/>
<rect x="321" y="336" width="43" height="2" opacity="1" fill="#FFFF66" stroke="none"/>
<rect x="411" y="166" width="43" height="86" opacity="1" fill="#FFFF66" stroke="none"/>
<rect x="501" y="234" width="43" height="86" opacity="1" fill="#FFFF66" stroke="none"/>
<rect x="52" y="313" width="42" height="1" opacity="1" fill="#FFFF66" stroke="none"/>
<rect x="141" y="304" width="43" height="2" opacity="1" fill="#FFFF66" stroke="none"/>
<rect x="231" y="201" width="43" height="13" opacity="1" fill="#FFFF66" stroke="none"/>
<rect x="321" y="318" width="43" height="18" opacity="1" fill="#FFFF66" stroke="none"/>
<rect x="411" y="143" width="43" height="23" opacity="1" fill="#FFFF66" stroke="none"/>
<rect x="501" y="211" width="43" height="23" opacity="1" fill="#FFFF66" stroke="none"/>
<polyline fill="none" opacity="1" stroke="#000000" stroke-width="1" points="52,313 94,313 94,349 52,349 52,313 "/>
<polyline fill="none" opacity="1" stroke="#000000" stroke-width="1" points="142,304 184,304 184,349 142,349 142,304 "/>
<polyline fill="none" opacity="1" stroke="#000000" stroke-width="1" points="232,201 274,201 274,349 232,349 232,201 "/>
<polyline fill="none" opacity="1" stroke="#000000" stroke-width="1" points="322,318 364,318 364,349 322,349 322,318 "/>
<polyline fill="none" opacity="1" stroke="#000000" stroke-width="1" points="412,143 454,143 454,349 412,349 412,143 "/>
<polyline fill="none" opacity="1" stroke="#000000" stroke-width="1" points="501,211 544,211 544,349 501,349 501,211 "/>
<rect x="94" y="337" width="43" height="12" opacity="0.6" fill="#6666FF" stroke="none"/>
<rect x="184" y="334" width="43" height="15" opacity="0.6" fill="#6666FF" stroke="none"/>
<rect x="274" y="338" width="43" height="11" opacity="0.6" fill="#6666FF" stroke="none"/>
<rect x="364" y="341" width="43" height="8" opacity="0.6" fill="#6666FF" stroke="none"/>
<rect x="454" y="330" width="43" height="19" opacity="0.6" fill="#6666FF" stroke="none"/>
<rect x="544" y="336" width="43" height="13" opacity="0.6" fill="#6666FF" stroke="none"/>
<rect x="94" y="334" width="43" height="3" opacity="0.6" fill="#66FFB2" stroke="none"/>
<rect x="184" y="323" width="43" height="11" opacity="0.6" fill="#66FFB2" stroke="none"/>
<rect x="274" y="256" width="43" height="82" opacity="0.6" fill="#66FFB2" stroke="none"/>
<rect x="364" y="339" width="43" height="2" opacity="0.6" fill="#66FFB2" stroke="none"/>
<rect x="454" y="205" width="43" height="125" opacity="0.6" fill="#66FFB2" stroke="none"/>
<rect x="544" y="307" width="43" height="29" opacity="0.6" fill="#66FFB2" stroke="none"/>
<rect x="94" y="334" width="43" height="0" opacity="0.6" fill="#F5A142" stroke="none"/>
<rect x="184" y="323" width="43" height="0" opacity="0.6" fill="#F5A142" stroke="none"/>
<rect x="274" y="256" width="43" height="0" opacity="0.6" fill="#F5A142" stroke="none"/>
<rect x="364" y="339" width="43" height="0" opacity="0.6" fill="#F5A142" stroke="none"/>
<rect x="454" y="205" width="43" height="0" opacity="0.6" fill="#F5A142" stroke="none"/>
<rect x="544" y="307" width="43" height="0" opacity="0.6" fill="#F5A142" stroke="none"/>
<rect x="94" y="334" width="43" height="0" opacity="0.6" fill="#FF66B2" stroke="none"/>
<rect x="184" y="323" width="43" height="0" opacity="0.6" fill="#FF66B2" stroke="none"/>
<rect x="274" y="256" width="43" height="0" opacity="0.6" fill="#FF66B2" stroke="none"/>
<rect x="364" y="339" width="43" height="0" opacity="0.6" fill="#FF66B2" stroke="none"/>
<rect x="454" y="204" width="43" height="1" opacity="0.6" fill="#FF66B2" stroke="none"/>
<rect x="544" y="306" width="43" height="1" opacity="0.6" fill="#FF66B2" stroke="none"/>
<rect x="94" y="334" width="43" height="0" opacity="0.6" fill="#FF66B2" stroke="none"/>
<rect x="184" y="323" width="43" height="0" opacity="0.6" fill="#FF66B2" stroke="none"/>
<rect x="274" y="256" width="43" height="0" opacity="0.6" fill="#FF66B2" stroke="none"/>
<rect x="364" y="338" width="43" height="1" opacity="0.6" fill="#FF66B2" stroke="none"/>
<rect x="454" y="204" width="43" height="0" opacity="0.6" fill="#FF66B2" stroke="none"/>
<rect x="544" y="306" width="43" height="0" opacity="0.6" fill="#FF66B2" stroke="none"/>
<rect x="94" y="333" width="43" height="1" opacity="0.6" fill="#FFFF66" stroke="none"/>
<rect x="184" y="321" width="43" height="2" opacity="0.6" fill="#FFFF66" stroke="none"/>
<rect x="274" y="213" width="43" height="43" opacity="0.6" fill="#FFFF66" stroke="none"/>
<rect x="364" y="336" width="43" height="2" opacity="0.6" fill="#FFFF66" stroke="none"/>
<rect x="454" y="74" width="43" height="130" opacity="0.6" fill="#FFFF66" stroke="none"/>
<rect x="544" y="176" width="43" height="130" opacity="0.6" fill="#FFFF66" stroke="none"/>
<rect x="94" y="332" width="43" height="1" opacity="0.6" fill="#FFFF66" stroke="none"/>
<rect x="184" y="320" width="43" height="1" opacity="0.6" fill="#FFFF66" stroke="none"/>
<rect x="274" y="200" width="43" height="13" opacity="0.6" fill="#FFFF66" stroke="none"/>
<rect x="364" y="318" width="43" height="18" opacity="0.6" fill="#FFFF66" stroke="none"/>
<rect x="454" y="40" width="43" height="34" opacity="0.6" fill="#FFFF66" stroke="none"/>
<rect x="544" y="141" width="43" height="35" opacity="0.6" fill="#FFFF66" stroke="none"/>
<polyline fill="none" opacity="1" stroke="#000000" stroke-width="1" points="94,332 137,332 137,349 94,349 94,332 "/>
<polyline fill="none" opacity="1" stroke="#000000" stroke-width="1" points="184,320 226,320 226,349 184,349 184,320 "/>
<polyline fill="none" opacity="1" stroke="#000000" stroke-width="1" points="274,200 316,200 316,349 274,349 274,200 "/>
<polyline fill="none" opacity="1" stroke="#000000" stroke-width="1" points="364,318 406,318 406,349 364,349 364,318 "/>
<polyline fill="none" opacity="1" stroke="#000000" stroke-width="1" points="454,40 496,40 496,349 454,349 454,40 "/>
<polyline fill="none" opacity="1" stroke="#000000" stroke-width="1" points="544,141 586,141 586,349 544,349 544,141 "/>
<polyline fill="none" opacity="1" stroke="#000000" stroke-width="1" points="50,40 589,40 "/>
<polyline fill="none" opacity="1" stroke="#000000" stroke-width="1" points="589,349 589,40 "/>
<polyline fill="none" opacity="1" stroke="#000000" stroke-width="1" points="50,349 589,349 "/>
<text x="80" y="360" dy="0.76em" text-anchor="start" font-family="sans-serif" font-size="16.129032258064516" opacity="1" fill="#000000">
runc
</text>
<text x="180" y="360" dy="0.76em" text-anchor="start" font-family="sans-serif" font-size="16.129032258064516" opacity="1" fill="#000000">
kata
</text>
<text x="260" y="360" dy="0.76em" text-anchor="start" font-family="sans-serif" font-size="16.129032258064516" opacity="1" fill="#000000">
snp
</text>
<text x="340" y="360" dy="0.76em" text-anchor="start" font-family="sans-serif" font-size="16.129032258064516" opacity="1" fill="#000000">
snp-sc2
</text>
<text x="445" y="360" dy="0.76em" text-anchor="start" font-family="sans-serif" font-size="16.129032258064516" opacity="1" fill="#000000">
tdx
</text>
<text x="520" y="360" dy="0.76em" text-anchor="start" font-family="sans-serif" font-size="16.129032258064516" opacity="1" fill="#000000">
tdx-sc2
</text>
<rect x="20" y="6" width="20" height="20" opacity="1" fill="#6666FF" stroke="none"/>
<text x="50" y="11" dy="0.76em" text-anchor="start" font-family="sans-serif" font-size="16.129032258064516" opacity="1" fill="#000000">
control-plane
</text>
<rect x="160" y="6" width="20" height="20" opacity="1" fill="#66FFB2" stroke="none"/>
<text x="190" y="11" dy="0.76em" text-anchor="start" font-family="sans-serif" font-size="16.129032258064516" opacity="1" fill="#000000">
create-vm
</text>
<rect x="275" y="6" width="20" height="20" opacity="1" fill="#F5A142" stroke="none"/>
<text x="305" y="11" dy="0.76em" text-anchor="start" font-family="sans-serif" font-size="16.129032258064516" opacity="1" fill="#000000">
pull-image-host
</text>
<rect x="430" y="6" width="20" height="20" opacity="1" fill="#FFFF66" stroke="none"/>
<text x="460" y="11" dy="0.76em" text-anchor="start" font-family="sans-serif" font-size="16.129032258064516" opacity="1" fill="#000000">
pull-image-guest
</text>
<text x="60" y="300" dy="0.76em" text-anchor="start" font-family="sans-serif" font-size="11.290322580645162" opacity="1" fill="#000000">
cold
</text>
<text x="100" y="320" dy="0.76em" text-anchor="start" font-family="sans-serif" font-size="11.290322580645162" opacity="1" fill="#000000">
warm
</text>
</svg>
