<svg width="400" height="600" viewBox="0 0 400 600" xmlns="http://www.w3.org/2000/svg">
<rect x="0" y="0" width="400" height="600" opacity="1" fill="#FFFFFF" stroke="none"/>
<line opacity="0.1" stroke="#000000" stroke-width="1" x1="50" y1="549" x2="389" y2="549"/>
<line opacity="0.1" stroke="#000000" stroke-width="1" x1="50" y1="543" x2="389" y2="543"/>
<line opacity="0.1" stroke="#000000" stroke-width="1" x1="50" y1="536" x2="389" y2="536"/>
<line opacity="0.1" stroke="#000000" stroke-width="1" x1="50" y1="529" x2="389" y2="529"/>
<line opacity="0.1" stroke="#000000" stroke-width="1" x1="50" y1="522" x2="389" y2="522"/>
<line opacity="0.1" stroke="#000000" stroke-width="1" x1="50" y1="515" x2="389" y2="515"/>
<line opacity="0.1" stroke="#000000" stroke-width="1" x1="50" y1="509" x2="389" y2="509"/>
<line opacity="0.1" stroke="#000000" stroke-width="1" x1="50" y1="502" x2="389" y2="502"/>
<line opacity="0.1" stroke="#000000" stroke-width="1" x1="50" y1="495" x2="389" y2="495"/>
<line opacity="0.1" stroke="#000000" stroke-width="1" x1="50" y1="488" x2="389" y2="488"/>
<line opacity="0.1" stroke="#000000" stroke-width="1" x1="50" y1="481" x2="389" y2="481"/>
<line opacity="0.1" stroke="#000000" stroke-width="1" x1="50" y1="475" x2="389" y2="475"/>
<line opacity="0.1" stroke="#000000" stroke-width="1" x1="50" y1="468" x2="389" y2="468"/>
<line opacity="0.1" stroke="#000000" stroke-width="1" x1="50" y1="461" x2="389" y2="461"/>
<line opacity="0.1" stroke="#000000" stroke-width="1" x1="50" y1="454" x2="389" y2="454"/>
<line opacity="0.1" stroke="#000000" stroke-width="1" x1="50" y1="447" x2="389" y2="447"/>
<line opacity="0.1" stroke="#000000" stroke-width="1" x1="50" y1="441" x2="389" y2="441"/>
<line opacity="0.1" stroke="#000000" stroke-width="1" x1="50" y1="434" x2="389" y2="434"/>
<line opacity="0.1" stroke="#000000" stroke-width="1" x1="50" y1="427" x2="389" y2="427"/>
<line opacity="0.1" stroke="#000000" stroke-width="1" x1="50" y1="420" x2="389" y2="420"/>
<line opacity="0.1" stroke="#000000" stroke-width="1" x1="50" y1="413" x2="389" y2="413"/>
<line opacity="0.1" stroke="#000000" stroke-width="1" x1="50" y1="406" x2="389" y2="406"/>
<line opacity="0.1" stroke="#000000" stroke-width="1" x1="50" y1="400" x2="389" y2="400"/>
<line opacity="0.1" stroke="#000000" stroke-width="1" x1="50" y1="393" x2="389" y2="393"/>
<line opacity="0.1" stroke="#000000" stroke-width="1" x1="50" y1="386" x2="389" y2="386"/>
<line opacity="0.1" stroke="#000000" stroke-width="1" x1="50" y1="379" x2="389" y2="379"/>
<line opacity="0.1" stroke="#000000" stroke-width="1" x1="50" y1="372" x2="389" y2="372"/>
<line opacity="0.1" stroke="#000000" stroke-width="1" x1="50" y1="366" x2="389" y2="366"/>
<line opacity="0.1" stroke="#000000" stroke-width="1" x1="50" y1="359" x2="389" y2="359"/>
<line opacity="0.1" stroke="#000000" stroke-width="1" x1="50" y1="352" x2="389" y2="352"/>
<line opacity="0.1" stroke="#000000" stroke-width="1" x1="50" y1="345" x2="389" y2="345"/>
<line opacity="0.1" stroke="#000000" stroke-width="1" x1="50" y1="338" x2="389" y2="338"/>
<line opacity="0.1" stroke="#000000" stroke-width="1" x1="50" y1="332" x2="389" y2="332"/>
<line opacity="0.1" stroke="#000000" stroke-width="1" x1="50" y1="325" x2="389" y2="325"/>
<line opacity="0.1" stroke="#000000" stroke-width="1" x1="50" y1="318" x2="389" y2="318"/>
<line opacity="0.1" stroke="#000000" stroke-width="1" x1="50" y1="311" x2="389" y2="311"/>
<line opacity="0.1" stroke="#000000" stroke-width="1" x1="50" y1="304" x2="389" y2="304"/>
<line opacity="0.1" stroke="#000000" stroke-width="1" x1="50" y1="297" x2="389" y2="297"/>
<line opacity="0.1" stroke="#000000" stroke-width="1" x1="50" y1="291" x2="389" y2="291"/>
<line opacity="0.1" stroke="#000000" stroke-width="1" x1="50" y1="284" x2="389" y2="284"/>
<line opacity="0.1" stroke="#000000" stroke-width="1" x1="50" y1="277" x2="389" y2="277"/>
<line opacity="0.1" stroke="#000000" stroke-width="1" x1="50" y1="270" x2="389" y2="270"/>
<line opacity="0.1" stroke="#000000" stroke-width="1" x1="50" y1="263" x2="389" y2="263"/>
<line opacity="0.1" stroke="#000000" stroke-width="1" x1="50" y1="257" x2="389" y2="257"/>
<line opacity="0.1" stroke="#000000" stroke-width="1" x1="50" y1="250" x2="389" y2="250"/>
<line opacity="0.1" stroke="#000000" stroke-width="1" x1="50" y1="243" x2="389" y2="243"/>
<line opacity="0.1" stroke="#000000" stroke-width="1" x1="50" y1="236" x2="389" y2="236"/>
<line opacity="0.1" stroke="#000000" stroke-width="1" x1="50" y1="229" x2="389" y2="229"/>
<line opacity="0.1" stroke="#000000" stroke-width="1" x1="50" y1="223" x2="389" y2="223"/>
<line opacity="0.1" stroke="#000000" stroke-width="1" x1="50" y1="216" x2="389" y2="216"/>
<line opacity="0.1" stroke="#000000" stroke-width="1" x1="50" y1="209" x2="389" y2="209"/>
<line opacity="0.1" stroke="#000000" stroke-width="1" x1="50" y1="202" x2="389" y2="202"/>
<line opacity="0.1" stroke="#000000" stroke-width="1" x1="50" y1="195" x2="389" y2="195"/>
<line opacity="0.1" stroke="#000000" stroke-width="1" x1="50" y1="188" x2="389" y2="188"/>
<line opacity="0.1" stroke="#000000" stroke-width="1" x1="50" y1="182" x2="389" y2="182"/>
<line opacity="0.1" stroke="#000000" stroke-width="1" x1="50" y1="175" x2="389" y2="175"/>
<line opacity="0.1" stroke="#000000" stroke-width="1" x1="50" y1="168" x2="389" y2="168"/>
<line opacity="0.1" stroke="#000000" stroke-width="1" x1="50" y1="161" x2="389" y2="161"/>
<line opacity="0.1" stroke="#000000" stroke-width="1" x1="50" y1="154" x2="389" y2="154"/>
<line opacity="0.1" stroke="#000000" stroke-width="1" x1="50" y1="148" x2="389" y2="148"/>
<line opacity="0.1" stroke="#000000" stroke-width="1" x1="50" y1="141" x2="389" y2="141"/>
<line opacity="0.1" stroke="#000000" stroke-width="1" x1="50" y1="134" x2="389" y2="134"/>
<line opacity="0.1" stroke="#000000" stroke-width="1" x1="50" y1="127" x2="389" y2="127"/>
<line opacity="0.1" stroke="#000000" stroke-width="1" x1="50" y1="120" x2="389" y2="120"/>
<line opacity="0.1" stroke="#000000" stroke-width="1" x1="50" y1="114" x2="389" y2="114"/>
<line opacity="0.1" stroke="#000000" stroke-width="1" x1="50" y1="107" x2="389" y2="107"/>
<line opacity="0.1" stroke="#000000" stroke-width="1" x1="50" y1="100" x2="389" y2="100"/>
<line opacity="0.1" stroke="#000000" stroke-width="1" x1="50" y1="93" x2="389" y2="93"/>
<line opacity="0.1" stroke="#000000" stroke-width="1" x1="50" y1="86" x2="389" y2="86"/>
<line opacity="0.1" stroke="#000000" stroke-width="1" x1="50" y1="80" x2="389" y2="80"/>
<line opacity="0.1" stroke="#000000" stroke-width="1" x1="50" y1="73" x2="389" y2="73"/>
<line opacity="0.1" stroke="#000000" stroke-width="1" x1="50" y1="66" x2="389" y2="66"/>
<line opacity="0.1" stroke="#000000" stroke-width="1" x1="50" y1="59" x2="389" y2="59"/>
<line opacity="0.1" stroke="#000000" stroke-width="1" x1="50" y1="52" x2="389" y2="52"/>
<line opacity="0.1" stroke="#000000" stroke-width="1" x1="50" y1="45" x2="389" y2="45"/>
<line opacity="0.2" stroke="#000000" stroke-width="1" x1="50" y1="549" x2="389" y2="549"/>
<line opacity="0.2" stroke="#000000" stroke-width="1" x1="50" y1="481" x2="389" y2="481"/>
<line opacity="0.2" stroke="#000000" stroke-width="1" x1="50" y1="413" x2="389" y2="413"/>
<line opacity="0.2" stroke="#000000" stroke-width="1" x1="50" y1="345" x2="389" y2="345"/>
<line opacity="0.2" stroke="#000000" stroke-width="1" x1="50" y1="277" x2="389" y2="277"/>
<line opacity="0.2" stroke="#000000" stroke-width="1" x1="50" y1="209" x2="389" y2="209"/>
<line opacity="0.2" stroke="#000000" stroke-width="1" x1="50" y1="141" x2="389" y2="141"/>
<line opacity="0.2" stroke="#000000" stroke-width="1" x1="50" y1="73" x2="389" y2="73"/>
<polyline fill="none" opacity="1" stroke="#000000" stroke-width="1" points="49,40 49,549 "/>
<text x="40" y="549" dy="0.5ex" text-anchor="end" font-family="sans-serif" font-size="16.129032258064516" opacity="1" fill="#000000">
0
</text>
<polyline fill="none" opacity="1" stroke="#000000" stroke-width="1" points="44,549 49,549 "/>
<text x="40" y="481" dy="0.5ex" text-anchor="end" font-family="sans-serif" font-size="16.129032258064516" opacity="1" fill="#000000">
2
</text>
<polyline fill="none" opacity="1" stroke="#000000" stroke-width="1" points="44,481 49,481 "/>
<text x="40" y="413" dy="0.5ex" text-anchor="end" font-family="sans-serif" font-size="16.129032258064516" opacity="1" fill="#000000">
4
</text>
<polyline fill="none" opacity="1" stroke="#000000" stroke-width="1" points="44,413 49,413 "/>
<text x="40" y="345" dy="0.5ex" text-anchor="end" font-family="sans-serif" font-size="16.129032258064516" opacity="1" fill="#000000">
6
</text>
<polyline fill="none" opacity="1" stroke="#000000" stroke-width="1" points="44,345 49,345 "/>
<text x="40" y="277" dy="0.5ex" text-anchor="end" font-family="sans-serif" font-size="16.129032258064516" opacity="1" fill="#000000">
8
</text>
<polyline fill="none" opacity="1" stroke="#000000" stroke-width="1" points="44,277 49,277 "/>
<text x="40" y="209" dy="0.5ex" text-anchor="end" font-family="sans-serif" font-size="16.129032258064516" opacity="1" fill="#000000">
10
</text>
<polyline fill="none" opacity="1" stroke="#000000" stroke-width="1" points="44,209 49,209 "/>
<text x="40" y="141" dy="0.5ex" text-anchor="end" font-family="sans-serif" font-size="16.129032258064516" opacity="1" fill="#000000">
12
</text>
<polyline fill="none" opacity="1" stroke="#000000" stroke-width="1" points="44,141 49,141 "/>
<text x="40" y="73" dy="0.5ex" text-anchor="end" font-family="sans-serif" font-size="16.129032258064516" opacity="1" fill="#000000">
14
</text>
<polyline fill="none" opacity="1" stroke="#000000" stroke-width="1" points="44,73 49,73 "/>
<text x="3" y="360" dy="0.76em" text-anchor="start" font-family="sans-serif" font-size="16.129032258064516" opacity="1" fill="#000000" transform="rotate(270, 3, 360)">
Cold Start Latency [s]
</text>
<rect x="52" y="515" width="80" height="34" opacity="1" fill="#6666FF" stroke="none"/>
<rect x="136" y="505" width="81" height="44" opacity="1" fill="#6666FF" stroke="none"/>
<rect x="221" y="516" width="81" height="33" opacity="1" fill="#6666FF" stroke="none"/>
<rect x="306" y="549" width="81" height="0" opacity="1" fill="#6666FF" stroke="none"/>
<rect x="52" y="491" width="80" height="24" opacity="1" fill="#66FFB2" stroke="none"/>
<rect x="136" y="231" width="81" height="274" opacity="1" fill="#66FFB2" stroke="none"/>
<rect x="221" y="230" width="81" height="286" opacity="1" fill="#66FFB2" stroke="none"/>
<rect x="306" y="549" width="81" height="0" opacity="1" fill="#66FFB2" stroke="none"/>
<rect x="52" y="491" width="80" height="0" opacity="1" fill="#FF66B2" stroke="none"/>
<rect x="136" y="230" width="81" height="1" opacity="1" fill="#FF66B2" stroke="none"/>
<rect x="221" y="229" width="81" height="1" opacity="1" fill="#FF66B2" stroke="none"/>
<rect x="306" y="549" width="81" height="0" opacity="1" fill="#FF66B2" stroke="none"/>
<rect x="52" y="490" width="80" height="1" opacity="1" fill="#FF66B2" stroke="none"/>
<rect x="136" y="230" width="81" height="0" opacity="1" fill="#FF66B2" stroke="none"/>
<rect x="221" y="229" width="81" height="0" opacity="1" fill="#FF66B2" stroke="none"/>
<rect x="306" y="549" width="81" height="0" opacity="1" fill="#FF66B2" stroke="none"/>
<rect x="52" y="488" width="80" height="2" opacity="1" fill="#FFFF66" stroke="none"/>
<rect x="136" y="85" width="81" height="145" opacity="1" fill="#FFFF66" stroke="none"/>
<rect x="221" y="85" width="81" height="144" opacity="1" fill="#FFFF66" stroke="none"/>
<rect x="306" y="549" width="81" height="0" opacity="1" fill="#FFFF66" stroke="none"/>
<rect x="52" y="483" width="80" height="5" opacity="1" fill="#FFFF66" stroke="none"/>
<rect x="136" y="40" width="81" height="45" opacity="1" fill="#FFFF66" stroke="none"/>
<rect x="221" y="41" width="81" height="44" opacity="1" fill="#FFFF66" stroke="none"/>
<rect x="306" y="549" width="81" height="0" opacity="1" fill="#FFFF66" stroke="none"/>
<polyline fill="none" opacity="1" stroke="#000000" stroke-width="1" points="50,40 389,40 "/>
<polyline fill="none" opacity="1" stroke="#000000" stroke-width="1" points="389,549 389,40 "/>
<polyline fill="none" opacity="1" stroke="#000000" stroke-width="1" points="50,549 389,549 "/>
<text x="85" y="560" dy="0.76em" text-anchor="start" font-family="sans-serif" font-size="16.129032258064516" opacity="1" fill="#000000">
kata
</text>
<text x="165" y="560" dy="0.76em" text-anchor="start" font-family="sans-serif" font-size="16.129032258064516" opacity="1" fill="#000000">
snp
</text>
<text x="245" y="560" dy="0.76em" text-anchor="start" font-family="sans-serif" font-size="16.129032258064516" opacity="1" fill="#000000">
snp-sc2
</text>
<text x="325" y="560" dy="0.76em" text-anchor="start" font-family="sans-serif" font-size="16.129032258064516" opacity="1" fill="#000000">
tdx
</text>
<rect x="70" y="6" width="20" height="20" opacity="1" fill="#66FFB2" stroke="none"/>
<text x="100" y="11" dy="0.76em" text-anchor="start" font-family="sans-serif" font-size="16.129032258064516" opacity="1" fill="#000000">
create-vm
</text>
<rect x="220" y="6" width="20" height="20" opacity="1" fill="#FFFF66" stroke="none"/>
<text x="250" y="11" dy="0.76em" text-anchor="start" font-family="sans-serif" font-size="16.129032258064516" opacity="1" fill="#000000">
pull-image
</text>
</svg>
