<svg width="600" height="400" viewBox="0 0 600 400" xmlns="http://www.w3.org/2000/svg">
<rect x="0" y="0" width="600" height="400" opacity="1" fill="#FFFFFF" stroke="none"/>
<line opacity="0.1" stroke="#000000" stroke-width="1" x1="50" y1="349" x2="589" y2="349"/>
<line opacity="0.1" stroke="#000000" stroke-width="1" x1="50" y1="338" x2="589" y2="338"/>
<line opacity="0.1" stroke="#000000" stroke-width="1" x1="50" y1="327" x2="589" y2="327"/>
<line opacity="0.1" stroke="#000000" stroke-width="1" x1="50" y1="316" x2="589" y2="316"/>
<line opacity="0.1" stroke="#000000" stroke-width="1" x1="50" y1="304" x2="589" y2="304"/>
<line opacity="0.1" stroke="#000000" stroke-width="1" x1="50" y1="293" x2="589" y2="293"/>
<line opacity="0.1" stroke="#000000" stroke-width="1" x1="50" y1="282" x2="589" y2="282"/>
<line opacity="0.1" stroke="#000000" stroke-width="1" x1="50" y1="270" x2="589" y2="270"/>
<line opacity="0.1" stroke="#000000" stroke-width="1" x1="50" y1="259" x2="589" y2="259"/>
<line opacity="0.1" stroke="#000000" stroke-width="1" x1="50" y1="248" x2="589" y2="248"/>
<line opacity="0.1" stroke="#000000" stroke-width="1" x1="50" y1="236" x2="589" y2="236"/>
<line opacity="0.1" stroke="#000000" stroke-width="1" x1="50" y1="225" x2="589" y2="225"/>
<line opacity="0.1" stroke="#000000" stroke-width="1" x1="50" y1="214" x2="589" y2="214"/>
<line opacity="0.1" stroke="#000000" stroke-width="1" x1="50" y1="202" x2="589" y2="202"/>
<line opacity="0.1" stroke="#000000" stroke-width="1" x1="50" y1="191" x2="589" y2="191"/>
<line opacity="0.1" stroke="#000000" stroke-width="1" x1="50" y1="180" x2="589" y2="180"/>
<line opacity="0.1" stroke="#000000" stroke-width="1" x1="50" y1="168" x2="589" y2="168"/>
<line opacity="0.1" stroke="#000000" stroke-width="1" x1="50" y1="157" x2="589" y2="157"/>
<line opacity="0.1" stroke="#000000" stroke-width="1" x1="50" y1="146" x2="589" y2="146"/>
<line opacity="0.1" stroke="#000000" stroke-width="1" x1="50" y1="134" x2="589" y2="134"/>
<line opacity="0.1" stroke="#000000" stroke-width="1" x1="50" y1="123" x2="589" y2="123"/>
<line opacity="0.1" stroke="#000000" stroke-width="1" x1="50" y1="112" x2="589" y2="112"/>
<line opacity="0.1" stroke="#000000" stroke-width="1" x1="50" y1="100" x2="589" y2="100"/>
<line opacity="0.1" stroke="#000000" stroke-width="1" x1="50" y1="89" x2="589" y2="89"/>
<line opacity="0.1" stroke="#000000" stroke-width="1" x1="50" y1="78" x2="589" y2="78"/>
<line opacity="0.1" stroke="#000000" stroke-width="1" x1="50" y1="66" x2="589" y2="66"/>
<line opacity="0.1" stroke="#000000" stroke-width="1" x1="50" y1="55" x2="589" y2="55"/>
<line opacity="0.1" stroke="#000000" stroke-width="1" x1="50" y1="44" x2="589" y2="44"/>
<line opacity="0.2" stroke="#000000" stroke-width="1" x1="50" y1="349" x2="589" y2="349"/>
<line opacity="0.2" stroke="#000000" stroke-width="1" x1="50" y1="293" x2="589" y2="293"/>
<line opacity="0.2" stroke="#000000" stroke-width="1" x1="50" y1="236" x2="589" y2="236"/>
<line opacity="0.2" stroke="#000000" stroke-width="1" x1="50" y1="180" x2="589" y2="180"/>
<line opacity="0.2" stroke="#000000" stroke-width="1" x1="50" y1="123" x2="589" y2="123"/>
<line opacity="0.2" stroke="#000000" stroke-width="1" x1="50" y1="66" x2="589" y2="66"/>
<polyline fill="none" opacity="1" stroke="#000000" stroke-width="1" points="49,40 49,349 "/>
<text x="40" y="349" dy="0.5ex" text-anchor="end" font-family="sans-serif" font-size="16.129032258064516" opacity="1" fill="#000000">
0
</text>
<polyline fill="none" opacity="1" stroke="#000000" stroke-width="1" points="44,349 49,349 "/>
<text x="40" y="293" dy="0.5ex" text-anchor="end" font-family="sans-serif" font-size="16.129032258064516" opacity="1" fill="#000000">
5
</text>
<polyline fill="none" opacity="1" stroke="#000000" stroke-width="1" points="44,293 49,293 "/>
<text x="40" y="236" dy="0.5ex" text-anchor="end" font-family="sans-serif" font-size="16.129032258064516" opacity="1" fill="#000000">
10
</text>
<polyline fill="none" opacity="1" stroke="#000000" stroke-width="1" points="44,236 49,236 "/>
<text x="40" y="180" dy="0.5ex" text-anchor="end" font-family="sans-serif" font-size="16.129032258064516" opacity="1" fill="#000000">
15
</text>
<polyline fill="none" opacity="1" stroke="#000000" stroke-width="1" points="44,180 49,180 "/>
<text x="40" y="123" dy="0.5ex" text-anchor="end" font-family="sans-serif" font-size="16.129032258064516" opacity="1" fill="#000000">
20
</text>
<polyline fill="none" opacity="1" stroke="#000000" stroke-width="1" points="44,123 49,123 "/>
<text x="40" y="66" dy="0.5ex" text-anchor="end" font-family="sans-serif" font-size="16.129032258064516" opacity="1" fill="#000000">
25
</text>
<polyline fill="none" opacity="1" stroke="#000000" stroke-width="1" points="44,66 49,66 "/>
<text x="3" y="280" dy="0.76em" text-anchor="start" font-family="sans-serif" font-size="16.129032258064516" opacity="1" fill="#000000" transform="rotate(270, 3, 280)">
Start-Up Latency [s]
</text>
<rect x="52" y="339" width="42" height="10" opacity="1" fill="#6666FF" stroke="none"/>
<rect x="141" y="336" width="43" height="13" opacity="1" fill="#6666FF" stroke="none"/>
<rect x="231" y="340" width="43" height="9" opacity="1" fill="#6666FF" stroke="none"/>
<rect x="321" y="341" width="43" height="8" opacity="1" fill="#6666FF" stroke="none"/>
<rect x="411" y="332" width="43" height="17" opacity="1" fill="#6666FF" stroke="none"/>
<rect x="501" y="340" width="43" height="9" opacity="1" fill="#6666FF" stroke="none"/>
<rect x="52" y="337" width="42" height="2" opacity="1" fill="#66FFB2" stroke="none"/>
<rect x="141" y="328" width="43" height="8" opacity="1" fill="#66FFB2" stroke="none"/>
<rect x="231" y="246" width="43" height="94" opacity="1" fill="#66FFB2" stroke="none"/>
<rect x="321" y="338" width="43" height="3" opacity="1" fill="#66FFB2" stroke="none"/>
<rect x="411" y="237" width="43" height="95" opacity="1" fill="#66FFB2" stroke="none"/>
<rect x="501" y="329" width="43" height="11" opacity="1" fill="#66FFB2" stroke="none"/>
<rect x="52" y="311" width="42" height="26" opacity="1" fill="#F5A142" stroke="none"/>
<rect x="141" y="301" width="43" height="27" opacity="1" fill="#F5A142" stroke="none"/>
<rect x="231" y="245" width="43" height="1" opacity="1" fill="#F5A142" stroke="none"/>
<rect x="321" y="337" width="43" height="1" opacity="1" fill="#F5A142" stroke="none"/>
<rect x="411" y="199" width="43" height="38" opacity="1" fill="#F5A142" stroke="none"/>
<rect x="501" y="328" width="43" height="1" opacity="1" fill="#F5A142" stroke="none"/>
<rect x="52" y="310" width="42" height="1" opacity="1" fill="#FF66B2" stroke="none"/>
<rect x="141" y="301" width="43" height="0" opacity="1" fill="#FF66B2" stroke="none"/>
<rect x="231" y="245" width="43" height="0" opacity="1" fill="#FF66B2" stroke="none"/>
<rect x="321" y="337" width="43" height="0" opacity="1" fill="#FF66B2" stroke="none"/>
<rect x="411" y="171" width="43" height="28" opacity="1" fill="#FF66B2" stroke="none"/>
<rect x="501" y="327" width="43" height="1" opacity="1" fill="#FF66B2" stroke="none"/>
<rect x="52" y="310" width="42" height="0" opacity="1" fill="#FF66B2" stroke="none"/>
<rect x="141" y="301" width="43" height="0" opacity="1" fill="#FF66B2" stroke="none"/>
<rect x="231" y="245" width="43" height="0" opacity="1" fill="#FF66B2" stroke="none"/>
<rect x="321" y="336" width="43" height="1" opacity="1" fill="#FF66B2" stroke="none"/>
<rect x="411" y="170" width="43" height="1" opacity="1" fill="#FF66B2" stroke="none"/>
<rect x="501" y="327" width="43" height="0" opacity="1" fill="#FF66B2" stroke="none"/>
<rect x="52" y="310" width="42" height="0" opacity="1" fill="#FFFF66" stroke="none"/>
<rect x="141" y="300" width="43" height="1" opacity="1" fill="#FFFF66" stroke="none"/>
<rect x="231" y="196" width="43" height="49" opacity="1" fill="#FFFF66" stroke="none"/>
<rect x="321" y="334" width="43" height="2" opacity="1" fill="#FFFF66" stroke="none"/>
<rect x="411" y="71" width="43" height="99" opacity="1" fill="#FFFF66" stroke="none"/>
<rect x="501" y="320" width="43" height="7" opacity="1" fill="#FFFF66" stroke="none"/>
<rect x="52" y="309" width="42" height="1" opacity="1" fill="#FFFF66" stroke="none"/>
<rect x="141" y="298" width="43" height="2" opacity="1" fill="#FFFF66" stroke="none"/>
<rect x="231" y="182" width="43" height="14" opacity="1" fill="#FFFF66" stroke="none"/>
<rect x="321" y="314" width="43" height="20" opacity="1" fill="#FFFF66" stroke="none"/>
<rect x="411" y="40" width="43" height="31" opacity="1" fill="#FFFF66" stroke="none"/>
<rect x="501" y="276" width="43" height="44" opacity="1" fill="#FFFF66" stroke="none"/>
<polyline fill="none" opacity="1" stroke="#000000" stroke-width="1" points="52,309 94,309 94,349 52,349 52,309 "/>
<polyline fill="none" opacity="1" stroke="#000000" stroke-width="1" points="142,298 184,298 184,349 142,349 142,298 "/>
<polyline fill="none" opacity="1" stroke="#000000" stroke-width="1" points="232,182 274,182 274,349 232,349 232,182 "/>
<polyline fill="none" opacity="1" stroke="#000000" stroke-width="1" points="322,314 364,314 364,349 322,349 322,314 "/>
<polyline fill="none" opacity="1" stroke="#000000" stroke-width="1" points="412,40 454,40 454,349 412,349 412,40 "/>
<polyline fill="none" opacity="1" stroke="#000000" stroke-width="1" points="501,276 544,276 544,349 501,349 501,276 "/>
<rect x="94" y="335" width="43" height="14" opacity="0.6" fill="#6666FF" stroke="none"/>
<rect x="184" y="332" width="43" height="17" opacity="0.6" fill="#6666FF" stroke="none"/>
<rect x="274" y="337" width="43" height="12" opacity="0.6" fill="#6666FF" stroke="none"/>
<rect x="364" y="340" width="43" height="9" opacity="0.6" fill="#6666FF" stroke="none"/>
<rect x="454" y="337" width="43" height="12" opacity="0.6" fill="#6666FF" stroke="none"/>
<rect x="544" y="339" width="43" height="10" opacity="0.6" fill="#6666FF" stroke="none"/>
<rect x="94" y="332" width="43" height="3" opacity="0.6" fill="#66FFB2" stroke="none"/>
<rect x="184" y="320" width="43" height="12" opacity="0.6" fill="#66FFB2" stroke="none"/>
<rect x="274" y="244" width="43" height="93" opacity="0.6" fill="#66FFB2" stroke="none"/>
<rect x="364" y="337" width="43" height="3" opacity="0.6" fill="#66FFB2" stroke="none"/>
<rect x="454" y="242" width="43" height="95" opacity="0.6" fill="#66FFB2" stroke="none"/>
<rect x="544" y="328" width="43" height="11" opacity="0.6" fill="#66FFB2" stroke="none"/>
<rect x="94" y="332" width="43" height="0" opacity="0.6" fill="#F5A142" stroke="none"/>
<rect x="184" y="320" width="43" height="0" opacity="0.6" fill="#F5A142" stroke="none"/>
<rect x="274" y="244" width="43" height="0" opacity="0.6" fill="#F5A142" stroke="none"/>
<rect x="364" y="337" width="43" height="0" opacity="0.6" fill="#F5A142" stroke="none"/>
<rect x="454" y="242" width="43" height="0" opacity="0.6" fill="#F5A142" stroke="none"/>
<rect x="544" y="328" width="43" height="0" opacity="0.6" fill="#F5A142" stroke="none"/>
<rect x="94" y="332" width="43" height="0" opacity="0.6" fill="#FF66B2" stroke="none"/>
<rect x="184" y="320" width="43" height="0" opacity="0.6" fill="#FF66B2" stroke="none"/>
<rect x="274" y="243" width="43" height="1" opacity="0.6" fill="#FF66B2" stroke="none"/>
<rect x="364" y="337" width="43" height="0" opacity="0.6" fill="#FF66B2" stroke="none"/>
<rect x="454" y="241" width="43" height="1" opacity="0.6" fill="#FF66B2" stroke="none"/>
<rect x="544" y="328" width="43" height="0" opacity="0.6" fill="#FF66B2" stroke="none"/>
<rect x="94" y="332" width="43" height="0" opacity="0.6" fill="#FF66B2" stroke="none"/>
<rect x="184" y="319" width="43" height="1" opacity="0.6" fill="#FF66B2" stroke="none"/>
<rect x="274" y="243" width="43" height="0" opacity="0.6" fill="#FF66B2" stroke="none"/>
<rect x="364" y="337" width="43" height="0" opacity="0.6" fill="#FF66B2" stroke="none"/>
<rect x="454" y="240" width="43" height="1" opacity="0.6" fill="#FF66B2" stroke="none"/>
<rect x="544" y="327" width="43" height="1" opacity="0.6" fill="#FF66B2" stroke="none"/>
<rect x="94" y="330" width="43" height="2" opacity="0.6" fill="#FFFF66" stroke="none"/>
<rect x="184" y="318" width="43" height="1" opacity="0.6" fill="#FFFF66" stroke="none"/>
<rect x="274" y="195" width="43" height="48" opacity="0.6" fill="#FFFF66" stroke="none"/>
<rect x="364" y="334" width="43" height="3" opacity="0.6" fill="#FFFF66" stroke="none"/>
<rect x="454" y="141" width="43" height="99" opacity="0.6" fill="#FFFF66" stroke="none"/>
<rect x="544" y="321" width="43" height="6" opacity="0.6" fill="#FFFF66" stroke="none"/>
<rect x="94" y="329" width="43" height="1" opacity="0.6" fill="#FFFF66" stroke="none"/>
<rect x="184" y="316" width="43" height="2" opacity="0.6" fill="#FFFF66" stroke="none"/>
<rect x="274" y="180" width="43" height="15" opacity="0.6" fill="#FFFF66" stroke="none"/>
<rect x="364" y="314" width="43" height="20" opacity="0.6" fill="#FFFF66" stroke="none"/>
<rect x="454" y="111" width="43" height="30" opacity="0.6" fill="#FFFF66" stroke="none"/>
<rect x="544" y="276" width="43" height="45" opacity="0.6" fill="#FFFF66" stroke="none"/>
<polyline fill="none" opacity="1" stroke="#000000" stroke-width="1" points="94,329 137,329 137,349 94,349 94,329 "/>
<polyline fill="none" opacity="1" stroke="#000000" stroke-width="1" points="184,316 226,316 226,349 184,349 184,316 "/>
<polyline fill="none" opacity="1" stroke="#000000" stroke-width="1" points="274,180 316,180 316,349 274,349 274,180 "/>
<polyline fill="none" opacity="1" stroke="#000000" stroke-width="1" points="364,314 406,314 406,349 364,349 364,314 "/>
<polyline fill="none" opacity="1" stroke="#000000" stroke-width="1" points="454,111 496,111 496,349 454,349 454,111 "/>
<polyline fill="none" opacity="1" stroke="#000000" stroke-width="1" points="544,276 586,276 586,349 544,349 544,276 "/>
<polyline fill="none" opacity="1" stroke="#000000" stroke-width="1" points="50,40 589,40 "/>
<polyline fill="none" opacity="1" stroke="#000000" stroke-width="1" points="589,349 589,40 "/>
<polyline fill="none" opacity="1" stroke="#000000" stroke-width="1" points="50,349 589,349 "/>
<text x="80" y="360" dy="0.76em" text-anchor="start" font-family="sans-serif" font-size="16.129032258064516" opacity="1" fill="#000000">
runc
</text>
<text x="180" y="360" dy="0.76em" text-anchor="start" font-family="sans-serif" font-size="16.129032258064516" opacity="1" fill="#000000">
kata
</text>
<text x="260" y="360" dy="0.76em" text-anchor="start" font-family="sans-serif" font-size="16.129032258064516" opacity="1" fill="#000000">
snp
</text>
<text x="340" y="360" dy="0.76em" text-anchor="start" font-family="sans-serif" font-size="16.129032258064516" opacity="1" fill="#000000">
snp-sc2
</text>
<text x="445" y="360" dy="0.76em" text-anchor="start" font-family="sans-serif" font-size="16.129032258064516" opacity="1" fill="#000000">
tdx
</text>
<text x="520" y="360" dy="0.76em" text-anchor="start" font-family="sans-serif" font-size="16.129032258064516" opacity="1" fill="#000000">
tdx-sc2
</text>
<rect x="20" y="6" width="20" height="20" opacity="1" fill="#6666FF" stroke="none"/>
<text x="50" y="11" dy="0.76em" text-anchor="start" font-family="sans-serif" font-size="16.129032258064516" opacity="1" fill="#000000">
control-plane
</text>
<rect x="160" y="6" width="20" height="20" opacity="1" fill="#66FFB2" stroke="none"/>
<text x="190" y="11" dy="0.76em" text-anchor="start" font-family="sans-serif" font-size="16.129032258064516" opacity="1" fill="#000000">
create-vm
</text>
<rect x="275" y="6" width="20" height="20" opacity="1" fill="#F5A142" stroke="none"/>
<text x="305" y="11" dy="0.76em" text-anchor="start" font-family="sans-serif" font-size="16.129032258064516" opacity="1" fill="#000000">
pull-image-host
</text>
<rect x="430" y="6" width="20" height="20" opacity="1" fill="#FFFF66" stroke="none"/>
<text x="460" y="11" dy="0.76em" text-anchor="start" font-family="sans-serif" font-size="16.129032258064516" opacity="1" fill="#000000">
pull-image-guest
</text>
<text x="60" y="300" dy="0.76em" text-anchor="start" font-family="sans-serif" font-size="11.290322580645162" opacity="1" fill="#000000">
cold
</text>
<text x="100" y="320" dy="0.76em" text-anchor="start" font-family="sans-serif" font-size="11.290322580645162" opacity="1" fill="#000000">
warm
</text>
</svg>
